<svg xmlns="http://www.w3.org/2000/svg" viewBox="0 0 71.18 28.89"><defs><style>.cls-1{fill:#45e566;}</style></defs><title>Recurso 2</title><g id="Capa_2" data-name="Capa 2"><g id="Capa_1-2" data-name="Capa 1"><path class="cls-1" d="M43.58,14.09v.05l0,.07,0,0a1,1,0,0,0,.2.45.6.6,0,0,1,.09.13l.14.13,0,0,.07.07,0,0,.17.11a1.37,1.37,0,0,0,.37.17.86.86,0,0,0,.42.09h.42a1.05,1.05,0,0,0,.46-.09l0,0,.11,0,.06,0a2.71,2.71,0,0,0,.42-.2,1.61,1.61,0,0,0,.41-.26,1.66,1.66,0,0,1,.14-.13.93.93,0,0,0,.13-.15.58.58,0,0,0,.13-.15.49.49,0,0,0,.11-.14.87.87,0,0,0,.11-.18,1.11,1.11,0,0,0,.07-.16,1.41,1.41,0,0,0,.22-.52,1,1,0,0,0,0-.17,1,1,0,0,0,0-.23.74.74,0,0,0,0-.21,1.27,1.27,0,0,0,0-.42.67.67,0,0,0-.08-.3.39.39,0,0,0-.06-.15.44.44,0,0,0-.09-.13.39.39,0,0,0-.08-.14,2.14,2.14,0,0,1-.19-.26.4.4,0,0,0-.1-.12l-.72-.7-.15-.11,0,0s-.07-.08-.12-.12,0,0,0,0a1.37,1.37,0,0,1-.18-.16,1.6,1.6,0,0,1-.11-.19s0-.08,0-.09h0a0,0,0,0,0,0,0,.62.62,0,0,1,0-.23.24.24,0,0,0,0-.09v0a.51.51,0,0,1,.11-.25l.06-.07a0,0,0,0,0,0,0A.56.56,0,0,1,46.43,9a.54.54,0,0,1,.19,0,.35.35,0,0,1,.31.13.32.32,0,0,1,.08.12,1.38,1.38,0,0,1,.08.17l0,.16v.16a1.1,1.1,0,0,0,.41-.14.68.68,0,0,0,.32-.28.75.75,0,0,0,.16-.4.61.61,0,0,0,0-.19A.7.7,0,0,0,48,8.55a1.08,1.08,0,0,0-.48-.49A.91.91,0,0,0,47.33,8l-.18,0a1.32,1.32,0,0,0-.34,0,2.55,2.55,0,0,0-.41,0h0l-.11,0-.05,0-.19.1a1.3,1.3,0,0,1-.19.11l-.2.12-.17.17a.75.75,0,0,1-.14.17l-.12.19a.08.08,0,0,1,0,0l0,.1s0,0,0,.05a1.18,1.18,0,0,1-.07.2.08.08,0,0,1,0,0l0,0v0a1.37,1.37,0,0,0-.06.66v0a1.09,1.09,0,0,0,.05.17.52.52,0,0,0,.09.2,1.59,1.59,0,0,0,.15.29h0a.79.79,0,0,0,.23.28l0,.05,0,0,.49.47,0,0c.21.21.49.45.5.48a.8.8,0,0,1,.13.13.79.79,0,0,1,.2.3.86.86,0,0,1,.1.32,1.2,1.2,0,0,1,0,.42,1.55,1.55,0,0,0,0,.21,1.11,1.11,0,0,0-.07.16.47.47,0,0,0-.05.1l0,0a.55.55,0,0,1-.1.11,1.8,1.8,0,0,1-.2.18.91.91,0,0,1-.4.25l-.23.07a.9.9,0,0,1-.46,0l-.2-.07a.92.92,0,0,1-.34-.24.69.69,0,0,1-.1-.19,1.32,1.32,0,0,0-.08-.19l0-.22a.81.81,0,0,1,0-.22A1.55,1.55,0,0,1,44.7,13l0-.06,0-.1s0,0,0,0l.13-.2.15-.16a2.82,2.82,0,0,1,.44-.26.52.52,0,0,1,.16-.06.31.31,0,0,0-.26-.27.85.85,0,0,0-.4,0h-.16a1.6,1.6,0,0,0-.26.08,1.21,1.21,0,0,0-.2.09l-.2.12-.16.14c-.05.06-.11.11-.16.18a1,1,0,0,0-.1.18,1.33,1.33,0,0,0-.09.21.84.84,0,0,1-.08.2,1.14,1.14,0,0,0-.07.22,1,1,0,0,0,0,.17.54.54,0,0,1,0,.18.86.86,0,0,1,0,.16A1,1,0,0,0,43.58,14.09Z"/><path class="cls-1" d="M48.38,13.15a.78.78,0,0,0,0,.22c0,.08,0,.14,0,.22s0,.12.08.18a.43.43,0,0,0,0,.05l0,.1,0,.05a4.08,4.08,0,0,0,.32.58l.06.07,0,0a3.48,3.48,0,0,0,.26.3l.16.1a.5.5,0,0,1,.17.11.82.82,0,0,1,.2.12l.2.08a.75.75,0,0,0,.23.07l.22,0H51a2.14,2.14,0,0,0,.34-.09.87.87,0,0,0,.19-.05l.16,0a.54.54,0,0,0,.17-.08l.16-.08.18-.1a.78.78,0,0,1,.18-.11.82.82,0,0,1,.17-.11,1.6,1.6,0,0,0,.48-.42l.15-.15.13-.17c.11-.12.2-.23.27-.32a3.37,3.37,0,0,0,.23-.4A1.28,1.28,0,0,0,54,13a2,2,0,0,0,.1-.21c0-.07,0-.13.07-.21a1.65,1.65,0,0,0,.14-.43.72.72,0,0,0,0-.21.8.8,0,0,0,.05-.21q0-.12,0-.21a1.36,1.36,0,0,0,0-.2.86.86,0,0,1,0-.21.67.67,0,0,0,0-.2v-.19a.68.68,0,0,0,0-.2.69.69,0,0,0,0-.2,1,1,0,0,1-.05-.18,1.62,1.62,0,0,0,0-.19s0-.12,0-.19a1.09,1.09,0,0,0,0-.17s0-.11-.07-.17a.53.53,0,0,0-.08-.17s-.06-.1-.1-.15L54,8.91a1.67,1.67,0,0,0-.12-.16l-.14-.15a.92.92,0,0,0-.14-.13l-.15-.12a.46.46,0,0,1-.16-.11l-.18-.09a1.39,1.39,0,0,1-.19-.06A1.36,1.36,0,0,0,52.49,8h-.05l-.1,0a.77.77,0,0,0-.26,0,2.08,2.08,0,0,0-.85.17,2.21,2.21,0,0,0-.59.26.88.88,0,0,1-.19.12l-.17.11-.18.11-.29.3-.16.15a1,1,0,0,1-.13.17l-.13.17c0,.06-.08.11-.12.18l-.13.16A.81.81,0,0,0,49,10a1,1,0,0,0-.09.18c0,.06,0,.12-.09.19a2.11,2.11,0,0,0-.17.38c0,.06-.05.12-.08.19s0,.12-.07.19-.11.39-.13.52,0,.4,0,.43v.06s0,.1,0,.14v.22a1.77,1.77,0,0,1,0,.22A3,3,0,0,0,48.38,13.15Zm1-1.08,0-.1v-.05a.73.73,0,0,0,0-.2c0-.08,0-.16,0-.22s0-.15.06-.21a2.09,2.09,0,0,0,0-.21c0-.08.05-.14.07-.21s.06-.14.1-.21a1.74,1.74,0,0,1,.1-.19.62.62,0,0,1,.12-.19,1.68,1.68,0,0,0,.27-.37A2.29,2.29,0,0,1,51,9.29a1,1,0,0,0,.18-.09l.2-.09,0,0,.09,0h.05a1.72,1.72,0,0,1,.37,0h.18l.17,0,.16.07a.53.53,0,0,1,.15.11.75.75,0,0,1,.29.25.85.85,0,0,1,.23.32,1,1,0,0,1,.09.18,2.07,2.07,0,0,1,.08.2,1.87,1.87,0,0,1,.07.22c0,.06,0,.15,0,.24a1.94,1.94,0,0,0,0,.24c0,.09,0,.16,0,.25s0,.27,0,.3,0,.38-.06.45-.1.34-.14.45l-.06.19a.82.82,0,0,1-.06.19.59.59,0,0,1-.1.17c0,.06-.07.11-.1.18l-.11.17a.82.82,0,0,1-.11.17l-.06.08a.21.21,0,0,0-.06.08l-.14.15c-.06.06-.1.12-.15.18a1.29,1.29,0,0,1-.17.16l-.18.13-.2.1-.18.08-.18.05a2.09,2.09,0,0,1-.42,0H50.8a.61.61,0,0,1-.23,0,1.17,1.17,0,0,1-.47-.24L50,14l-.11-.16c0-.07-.07-.12-.1-.19a2.31,2.31,0,0,1-.15-.38.87.87,0,0,1-.07-.17,1.29,1.29,0,0,1,0-.19c0-.07,0-.13,0-.19a1.25,1.25,0,0,1,0-.19v-.2a1.41,1.41,0,0,0,0-.21A.09.09,0,0,0,49.43,12.07Z"/><path class="cls-1" d="M68.6,20a1,1,0,0,1,0-.18c0-.06,0-.13,0-.19a1.62,1.62,0,0,0,0-.19,1.09,1.09,0,0,0,0-.17c0-.05,0-.11-.07-.17a.53.53,0,0,0-.08-.17c0-.05-.06-.1-.1-.16s0-.12-.08-.17a1.77,1.77,0,0,0-.12-.17.92.92,0,0,1-.14-.14.92.92,0,0,0-.14-.13l-.15-.12a.64.64,0,0,1-.16-.11l-.18-.09A1.39,1.39,0,0,1,67,17.8a1.36,1.36,0,0,0-.38-.11h0l-.1,0a.77.77,0,0,0-.26,0,2.08,2.08,0,0,0-.85.17,2.21,2.21,0,0,0-.59.26,1.57,1.57,0,0,1-.19.12l-.17.11-.18.11-.29.3-.16.15a.91.91,0,0,1-.13.16c0,.07-.09.12-.13.18l-.12.17-.13.17a1,1,0,0,0-.12.17,1.11,1.11,0,0,0-.09.19c0,.05,0,.12-.09.19a2.11,2.11,0,0,0-.17.38l-.08.19c0,.05,0,.12-.06.19a3.45,3.45,0,0,0-.14.52s-.05.4-.05.42v.07s0,.1,0,.14v.22a1.77,1.77,0,0,1,0,.22,3.13,3.13,0,0,0,0,.43.78.78,0,0,0,0,.22c0,.07,0,.14,0,.22s0,.12.08.18,0,0,0,.05l0,.1,0,.05a4.71,4.71,0,0,0,.32.58l.06.07s0,0,0,0a3.48,3.48,0,0,0,.26.3.83.83,0,0,0,.16.09l.17.11.2.12a.72.72,0,0,0,.2.09,1.19,1.19,0,0,0,.23.07l.22,0h.54a1.46,1.46,0,0,0,.34-.1l.18,0,.17,0L66,25a1.29,1.29,0,0,0,.16-.09l.18-.09a.78.78,0,0,1,.18-.11.67.67,0,0,1,.18-.11,1.87,1.87,0,0,0,.47-.42l.15-.15.13-.17a3.3,3.3,0,0,0,.27-.33,2.65,2.65,0,0,0,.23-.39,1.23,1.23,0,0,0,.21-.41,1.24,1.24,0,0,0,.1-.2,1.72,1.72,0,0,1,.07-.21,1.78,1.78,0,0,0,.14-.43.8.8,0,0,0,.05-.21.79.79,0,0,0,0-.22l0-.2a1.5,1.5,0,0,0,0-.2.86.86,0,0,1,0-.21.67.67,0,0,0,0-.2v-.19a.65.65,0,0,0,0-.2A.69.69,0,0,0,68.6,20Zm-1.09,1.09c0,.13-.05.38-.07.44a3.72,3.72,0,0,1-.13.45l-.06.2a.82.82,0,0,1-.06.19.59.59,0,0,1-.1.17c0,.06-.07.11-.1.18a1.63,1.63,0,0,1-.11.17.82.82,0,0,1-.11.17l-.06.07s0,.06-.06.09l-.14.14-.15.19a.8.8,0,0,1-.17.15c0,.05-.12.09-.18.14l-.2.09a.6.6,0,0,1-.18.09l-.18.05a2.09,2.09,0,0,1-.42.05h-.09a.61.61,0,0,1-.23,0,1.31,1.31,0,0,1-.47-.24l-.15-.15L64,23.55c0-.07-.07-.12-.1-.19a2.31,2.31,0,0,1-.15-.38c0-.06,0-.11-.07-.18a1,1,0,0,1,0-.18c0-.07,0-.13,0-.19a1.2,1.2,0,0,1,0-.2V22a1.34,1.34,0,0,0,0-.21.11.11,0,0,0,0-.06l0-.09v-.05a.72.72,0,0,0,0-.21l0-.22c0-.07,0-.14.06-.2s0-.15,0-.21.05-.14.07-.21a2,2,0,0,1,.1-.21c0-.06.06-.13.1-.2a.71.71,0,0,1,.12-.18,2.07,2.07,0,0,0,.27-.37,2.29,2.29,0,0,1,.66-.62.64.64,0,0,0,.18-.1l.2-.08,0,0,.09,0h0A1.72,1.72,0,0,1,66,18.7h.18l.17,0,.16.06.15.11a.88.88,0,0,1,.29.26.81.81,0,0,1,.23.31,1.11,1.11,0,0,1,.09.19,1.38,1.38,0,0,1,.08.2,1.42,1.42,0,0,1,.07.22c0,.06,0,.15.05.24a2.12,2.12,0,0,0,0,.24c0,.09,0,.16,0,.25S67.51,21.08,67.51,21.11Z"/><path class="cls-1" d="M54.39,13.82c0,.2,0,.2-.06.39s0,.2-.09.4a.84.84,0,0,1-.13.38.43.43,0,0,1-.32.24s.19,0,.41,0h2l.41,0H57c.24,0,.19,0,.39,0h.36s-.17,0-.24-.25a1,1,0,0,1,0-.38,3.28,3.28,0,0,1,.08-.41c0-.2,0-.2.07-.4h0a2.29,2.29,0,0,1-.69.3,2,2,0,0,1-.36,0h-.67c-.2,0-.22.07-.39,0s-.09-.06-.09-.13a1.37,1.37,0,0,1,0-.4l.07-.39a2.83,2.83,0,0,1,.08-.4c0-.18.05-.18.08-.38s0-.2.06-.39a1,1,0,0,0,0-.12l0-.16a.74.74,0,0,1,0-.12c0-.2,0-.2.06-.39a1,1,0,0,1,0-.12L56,11a1,1,0,0,1,0-.12c0-.19,0-.19.08-.39s.05-.22.08-.43,0-.22.09-.44,0-.22,0-.44,0-.21.07-.42a1.31,1.31,0,0,1,.14-.4.47.47,0,0,1,.34-.24h-.36l-.37,0c-.18,0-.17,0-.34,0h-.73s.17.06.23.26a.74.74,0,0,1,0,.39c0,.19,0,.19,0,.39s0,.2-.08.4a.5.5,0,0,0,0,.12l0,.15a.74.74,0,0,1,0,.12l-.07.39c0,.2-.05.2-.09.41a.6.6,0,0,0,0,.12l0,.15s0,.07,0,.12-.16,1-.18,1.09a.6.6,0,0,0,0,.12l0,.15c0,.18-.06.35-.09.53a2.45,2.45,0,0,1-.08.39C54.44,13.61,54.42,13.61,54.39,13.82Z"/><path class="cls-1" d="M61.72,15.23c.13,0,.25,0,.36,0l.36,0h0A3.12,3.12,0,0,0,63.68,15a3.87,3.87,0,0,0,.34-.21l.33-.24a4,4,0,0,0,.3-.28A2.73,2.73,0,0,0,65,14a5.08,5.08,0,0,0,.69-1.08,4.57,4.57,0,0,0,.48-2,.34.34,0,0,1,0-.09l0-.19v-.09a2.55,2.55,0,0,0-.3-1,1.27,1.27,0,0,0-.15-.31,2.37,2.37,0,0,0-.23-.3,2.29,2.29,0,0,0-.27-.27,2.49,2.49,0,0,0-.32-.21,3.73,3.73,0,0,0-1.17-.3H62.33l-.43,0a.32.32,0,0,1,.25.25,1.25,1.25,0,0,1,0,.39c0,.2,0,.2-.08.4s0,.2-.06.4a.5.5,0,0,0,0,.12l0,.15a1,1,0,0,1,0,.12c0,.2,0,.2-.08.39s0,.2-.05.41a.6.6,0,0,0,0,.12l0,.15c0,.09-.2,1.08-.22,1.21s-.06.21-.09.42,0,.2-.06.4-.05.21-.09.42,0,.2-.06.41a3.07,3.07,0,0,1-.07.42c0,.21,0,.21-.06.42s-.26.52-.46.52Zm.66-1.62c0-.2,0-.2.06-.38l.08-.4.06-.38a3.79,3.79,0,0,1,.06-.38c0-.2,0-.2.08-.39a2.85,2.85,0,0,0,.06-.39l.06-.39c0-.25.09-.51.14-.76a6.33,6.33,0,0,1,.16-.78.21.21,0,0,1,.11-.14h.21a1.36,1.36,0,0,1,.36,0,.93.93,0,0,1,.33.12,1.6,1.6,0,0,1,.3.23A2.4,2.4,0,0,1,65,11.13a3.81,3.81,0,0,1,0,.66,4.28,4.28,0,0,1-.27.75,3.36,3.36,0,0,1-.16.33,3,3,0,0,1-.22.31c-.08.1-.19.19-.26.28a2,2,0,0,1-1.44.68h-.21s-.07-.05-.07-.14A2.79,2.79,0,0,1,62.38,13.61Z"/><path class="cls-1" d="M71.07,8.14h-2.3c-.06,0,.09,0,0,0H66.55c.11,0,.18.18.21.27a.41.41,0,0,1,0,.16.61.61,0,0,1,0,.22l-.07.39a1,1,0,0,0,0,.2s0,.1,0,.2a.68.68,0,0,1,0,.19,1.68,1.68,0,0,1,0,.2,1.23,1.23,0,0,1,0,.2,1.82,1.82,0,0,0-.05.2l0,.12a.22.22,0,0,0,0,.08s0,0,0,.08l0,.12a1.8,1.8,0,0,1,0,.2s0,.1,0,.2-.1.49-.11.54-.07.47-.08.54L66,13c0,.1,0,.16,0,.2a1.12,1.12,0,0,1,0,.31s0,.06,0,.09,0,0,0,.08a.68.68,0,0,0,0,.12l-.14.79c0,.18-.21.63-.45.63h4.64c-.1,0-.21-.18-.23-.26l0-.16a.54.54,0,0,1,0-.22c0-.1,0-.17,0-.2a.38.38,0,0,0,.05-.2l0-.19s0-.06,0-.09a.47.47,0,0,0,0-.12,2.09,2.09,0,0,1-.54.24l-.21,0a.58.58,0,0,1-.19,0h-.62a.75.75,0,0,0-.23,0h-.3s.12,0,0,0h-.31l-.21,0H67a.08.08,0,0,1-.07-.08c0-.09,0-.14,0-.17a.44.44,0,0,0,0-.18,1.63,1.63,0,0,0,0-.18,1.06,1.06,0,0,0,0-.18l.06-.34c0-.09,0-.15,0-.17a1.52,1.52,0,0,0,0-.19.34.34,0,0,0,0-.18,1,1,0,0,1,0-.17l0,0,0-.14s0,0,0,0a3.14,3.14,0,0,0,.08-.4l0-.13h0l0-.13v0a1.45,1.45,0,0,0,.07-.26,1.58,1.58,0,0,1,.48.06c.22.07.38.21.6.3h0a.66.66,0,0,0,.4.1c.61,0,1.09-.56,1.46-1,0-.05,0-.11-.08-.08a.34.34,0,0,1-.09.08l0,0,0,0a.63.63,0,0,1-.24.09h0a.52.52,0,0,1-.17,0,1.11,1.11,0,0,1-.6-.21,1.08,1.08,0,0,0-.18-.11,1.05,1.05,0,0,0-.64-.22.78.78,0,0,0-.36.08.5.5,0,0,0-.13,0l-.14.08,0,0a0,0,0,0,1-.06,0c0-.09,0-.15,0-.17v-.07a.62.62,0,0,1,0-.13c0-.1.05-.17.05-.2s0-.09,0-.2a.6.6,0,0,0,0-.12s0-.06,0-.08l0-.19c0-.06.06-.09.11-.09h1.65a1.69,1.69,0,0,1,.59.09.87.87,0,0,1,.38.17.32.32,0,0,1,.1.08,1.35,1.35,0,0,0,0-.2s0-.11,0-.21a1.19,1.19,0,0,0,0-.2,1.13,1.13,0,0,0,0-.19,1.18,1.18,0,0,1,.14-.39.44.44,0,0,1,.33-.22Z"/><path class="cls-1" d="M47.78,21.41c0-.2,0-.2.07-.4s0-.19.09-.39,0-.2.07-.39.09-.52.13-.78a2.85,2.85,0,0,1,.06-.39.43.43,0,0,1,0-.12l0-.15a.6.6,0,0,1,0-.12c0-.2,0-.2,0-.4s0-.18.07-.38a1.18,1.18,0,0,1,.15-.39.51.51,0,0,1,.33-.26H48a1.23,1.23,0,0,0-.39.08,2.79,2.79,0,0,0-.66.48,3.76,3.76,0,0,0-.28.32,2.83,2.83,0,0,0-.3.3c-.15.15-.14.16-.28.31s-.15.15-.3.3a4.15,4.15,0,0,1-.27.32c-.06,0-.1.1-.15,0s-.09-.16-.19-.32-.22-.42-.34-.64a2.58,2.58,0,0,1-.18-.32L44.58,18l-.06-.14a.2.2,0,0,1-.06-.09,1,1,0,0,0-.23-.27.77.77,0,0,0-.63-.27h-.9s.18,0,.25.24a1,1,0,0,1,0,.39c0,.2,0,.2-.08.4s0,.19-.07.39,0,.2-.06.39l-.06.4c0,.21-.06.21-.09.4a.74.74,0,0,0,0,.12l0,.16a1,1,0,0,0,0,.12c0,.14-.08.41-.12.61a4.63,4.63,0,0,1-.08.47.74.74,0,0,0,0,.12l0,.16a1,1,0,0,1,0,.12c0,.19,0,.19-.06.4s0,.2-.08.4,0,.19-.07.4,0,.2,0,.4a2.46,2.46,0,0,0-.09.39,1.51,1.51,0,0,1-.12.39.49.49,0,0,1-.34.25h1.79s-.16-.05-.22-.26a.9.9,0,0,1,0-.38c0-.2,0-.2.07-.4a3.1,3.1,0,0,1,.08-.42c0-.2,0-.2.05-.41a3.38,3.38,0,0,1,.09-.41c0-.21,0-.21.05-.41l.18-.83c0-.2,0-.2,0-.41a2.73,2.73,0,0,0,.1-.41c0-.21,0-.21.05-.41s0-.21.07-.41c0,0,.06-.07.08,0a1.42,1.42,0,0,1,.21.33,3.54,3.54,0,0,0,.16.34,2.77,2.77,0,0,0,.2.34,3.53,3.53,0,0,0,.21.32,3.7,3.7,0,0,0,.17.35,1.26,1.26,0,0,0,.21.32s0,.08.11,0,.17-.15.33-.32l.31-.34c.16-.17.16-.18.3-.35s.15-.17.32-.35.16-.15.33-.33a2.3,2.3,0,0,1,.3-.33s.06,0,.07,0-.05.17-.09.34,0,.17,0,.35,0,.16-.09.34l-.16,1.08a.74.74,0,0,0,0,.12l-.05.16a1,1,0,0,1,0,.12c0,.19,0,.19-.08.4s0,.2,0,.4,0,.19-.08.4,0,.2-.07.4a2.44,2.44,0,0,0-.07.39.86.86,0,0,1-.14.38.43.43,0,0,1-.32.24h.81l.18,0h.08c.13,0,.26,0,.36,0l.37,0s-.12-.07-.23-.26a.68.68,0,0,1,0-.38s0-.19,0-.38l.08-.4a2.78,2.78,0,0,1,.11-.5l0-.15a.51.51,0,0,0,0-.13,3,3,0,0,1,.08-.39C47.77,21.59,47.75,21.59,47.78,21.41Z"/><path class="cls-1" d="M52.49,24.18a.86.86,0,0,1-.12-.3v-.09a.57.57,0,0,0,0-.12v-.16c0-.05,0-.12,0-.19v-.2a3.44,3.44,0,0,0,0-.4s0-.18,0-.21a2.42,2.42,0,0,1,0-.25s0-.09,0-.13,0-.13,0-.2a1.21,1.21,0,0,1,0-.19v-.21a1.36,1.36,0,0,0,0-.2,1.37,1.37,0,0,1,0-.19v-.21c0-.07,0-.14,0-.19a2.45,2.45,0,0,1,0-.25.71.71,0,0,0,0-.15v0l0-.26V20a1,1,0,0,1,0-.17,1.2,1.2,0,0,0,0-.19.88.88,0,0,0,0-.16,4.36,4.36,0,0,1,0-.72l0-.52A1.15,1.15,0,0,1,52,18c0-.06.05-.13.07-.18a1.12,1.12,0,0,1,.36-.54l.11-.08a.37.37,0,0,0-.18,0h-.56a.42.42,0,0,1-.19,0h-.19a.36.36,0,0,0-.18,0h-.37a.45.45,0,0,0-.19,0h-.37s0,0,.07.08a.48.48,0,0,1,.11.2.74.74,0,0,1,.07.34,1.24,1.24,0,0,1,0,.18.49.49,0,0,1,0,.19.46.46,0,0,1-.05.1s0,0,0,.05,0,0-.05.07a.83.83,0,0,0,0,.12.08.08,0,0,0,0,0l-.05.09a.43.43,0,0,0,0,.05l-.07.18a1.42,1.42,0,0,0-.08.18s0,0,0,0l0,.09a.47.47,0,0,1,0,.09l0,.08s0,0,0,.05a1,1,0,0,0-.07.18,1.42,1.42,0,0,1-.08.18c0,.05,0,.12-.05.17s-.06.12-.08.19l-.06.18c-.06.12-.12.29-.15.34a5.35,5.35,0,0,0-.24.52c0,.06,0,.11-.06.18a.35.35,0,0,1-.06.09.08.08,0,0,1,0,.07.15.15,0,0,1,0,.08.33.33,0,0,1,0,.12l-.07.16c0,.06-.06.12-.08.19l-.06.18a1.34,1.34,0,0,0-.07.18l-.08.19-.07.17c0,.06-.05.12-.07.19s0,0,0,0l0,.09s0,0,0,0-.11.25-.17.36a1.31,1.31,0,0,1,0,.15,0,0,0,0,1,0,0l0,.06a.93.93,0,0,1-.26.41.39.39,0,0,1-.19.14l-.1,0h1.79a.09.09,0,0,1-.06,0,.18.18,0,0,1-.1-.07.31.31,0,0,1,0-.17,1.33,1.33,0,0,1,.08-.3,1.7,1.7,0,0,0,.09-.24.26.26,0,0,0,0-.08.77.77,0,0,1,.06-.15l.05-.14a0,0,0,0,0,0,0l0-.05a.05.05,0,0,1,0-.05v0a1.3,1.3,0,0,1,.08-.17s0-.1.09-.24a1.45,1.45,0,0,1,.47.07c.22.07.4.22.63.3a.79.79,0,0,0,.29.11v.12a.4.4,0,0,0,0,.11.66.66,0,0,0,0,.15.22.22,0,0,1,0,.08s0,.07,0,.1v.14a.54.54,0,0,1,0,.31.45.45,0,0,1-.1.18.29.29,0,0,1-.12.07l-.06,0h.53a.45.45,0,0,1,.19,0h1.07l-.08,0A.41.41,0,0,1,52.49,24.18Zm-1.35-2.36a1.18,1.18,0,0,0-.43-.08.94.94,0,0,0-.37.07.26.26,0,0,0-.12.05l-.07,0c.05-.14.1-.24.1-.25s0-.16,0-.19a.52.52,0,0,0,.09-.17.55.55,0,0,1,.07-.18,1.25,1.25,0,0,1,.15-.36l.08-.18a1.22,1.22,0,0,0,.07-.17.38.38,0,0,0,.08-.19c0-.09.07-.14,0-.17l.09-.19s0,0,0,0,0,0,0,0a.68.68,0,0,1,0,.19.46.46,0,0,0,0,.17.82.82,0,0,0,0,.19s0,.09,0,.18a1.55,1.55,0,0,0,0,.18.31.31,0,0,1,0,.18v.17a.87.87,0,0,1,0,.19.46.46,0,0,0,0,.17,1.33,1.33,0,0,0,0,.34Z"/><path class="cls-1" d="M57.68,24.05a.33.33,0,0,1-.16.07.26.26,0,0,1-.21,0,.59.59,0,0,1-.28-.2l-.1-.13a.27.27,0,0,1-.1-.15,1.58,1.58,0,0,1-.13-.26.06.06,0,0,1,0,0,.64.64,0,0,0,0-.07l0,0a2.66,2.66,0,0,0,0-.28l0,0a.43.43,0,0,1,0-.11l0-.14a.58.58,0,0,1,0-.14c0-.08,0-.16,0-.22s0-.14-.07-.22a.49.49,0,0,1,0-.11h0l0,0,.05,0,.09,0h0a.07.07,0,0,0,.06,0s.1-.06.16-.08A.43.43,0,0,0,57,21.7a.75.75,0,0,0,.14-.12l0,0,.07-.06,0,0,.16-.13a1.1,1.1,0,0,0,.16-.15,2.36,2.36,0,0,0,.25-.33,1.08,1.08,0,0,0,.11-.18c0-.05.06-.12.1-.18l.07-.18s0,0,0,0l0-.1a.17.17,0,0,1,0-.05,1.89,1.89,0,0,1,.06-.18l0-.2,0-.2a1.09,1.09,0,0,0,0-.18c0-.07,0-.12,0-.19s0-.12,0-.18l0-.19a.7.7,0,0,0-.05-.18l-.07-.16c0-.06,0-.11-.07-.18a2,2,0,0,0-.21-.28l-.11-.13-.17-.14-.07-.06,0,0a.65.65,0,0,1-.15-.1l-.17-.08a1.63,1.63,0,0,0-.52-.15l-.19,0H54l.13,0a.34.34,0,0,1,.1.2.33.33,0,0,1,0,.17,1.49,1.49,0,0,1,0,.21.46.46,0,0,0,0,.2s0,.1,0,.2a1.88,1.88,0,0,0,0,.19.93.93,0,0,0,0,.2l0,.12a1,1,0,0,0,0,.17l-.09.51a.57.57,0,0,0,0,.2,1.12,1.12,0,0,1,0,.19l-.07.4c0,.06-.07.37-.08.39a2.87,2.87,0,0,0-.11.52,1,1,0,0,1,0,.17,1.88,1.88,0,0,0,0,.2,2,2,0,0,1-.08.41.69.69,0,0,0,0,.19,1.88,1.88,0,0,0,0,.2.82.82,0,0,1,0,.2l-.14.8c0,.11,0,.17,0,.19a1.19,1.19,0,0,1,0,.2,1.16,1.16,0,0,1-.06.22c0,.12-.26.43-.41.43h1.79l-.1-.05c-.06,0-.11-.09-.14-.2s0-.09,0-.16a.81.81,0,0,1,0-.22l.09-.46a.43.43,0,0,1,0-.12l0-.1a.51.51,0,0,1,0-.09.62.62,0,0,0,0-.14c0-.05,0-.1,0-.13v-.1a.34.34,0,0,1,0-.09.58.58,0,0,1,0-.14.52.52,0,0,1,.07-.12s0,0,0-.05,0,0,0,0a.45.45,0,0,1,.16,0H55l0,0,.09.05a1.37,1.37,0,0,1,.16.18l.06.07v0a.42.42,0,0,1,0,.18,2,2,0,0,0,.1.49l0,.14v.11s0,0,0,0a.73.73,0,0,0,.09.22l0,.09a.49.49,0,0,1,0,.11.3.3,0,0,0,0,.16l0,0h0s0,0,0,.06a.74.74,0,0,0,.07.21.75.75,0,0,0,.23.27.33.33,0,0,0,.17.07l.16,0a1.09,1.09,0,0,0,.36,0,1.05,1.05,0,0,0,.39-.12C57.34,24.54,57.66,24.27,57.68,24.05Zm-1.34-3.12a1.43,1.43,0,0,1-.37.14,1.16,1.16,0,0,1-.36.05h-.5a.3.3,0,0,1-.16,0l-.09,0s0,0,0-.07v-.13a.14.14,0,0,1,0-.1.31.31,0,0,1,0-.08,1.3,1.3,0,0,0,0-.15l0-.12s0-.06,0-.1a.09.09,0,0,1,0-.08l0-.15A.5.5,0,0,1,55,20a.44.44,0,0,1,0-.1.13.13,0,0,1,0-.08s0-.08,0-.15,0-.07,0-.11,0-.05,0-.07v-.08s0-.07,0-.12l0-.19a.35.35,0,0,0,0-.18.68.68,0,0,0,0-.2.11.11,0,0,1,0-.08.51.51,0,0,1,0-.11s0-.06.07-.08,0,0,.1-.06a.24.24,0,0,1,.17,0,.37.37,0,0,0,.17,0h.35a1.23,1.23,0,0,1,.35.05,1.21,1.21,0,0,1,.46.28l0,.06s0,0,0,0l.11.13a.64.64,0,0,1,.08.14,1,1,0,0,1,0,.34,1,1,0,0,1,0,.35,1.82,1.82,0,0,1-.3.68,1.06,1.06,0,0,1-.14.15,1,1,0,0,1-.15.13,1.66,1.66,0,0,0-.14.13Z"/><path class="cls-1" d="M67.93,24.29a5.5,5.5,0,0,1-.61.47L67,25a2.46,2.46,0,0,1-.32.19,4.63,4.63,0,0,1-1.2.32c-.14,0-.27,0-.41,0s-.28,0-.4,0-.27,0-.4-.05a3.17,3.17,0,0,1-.68-.32l-.19-.1c-.34-.26-.65-.56-1-.8a2.8,2.8,0,0,0-.32-.2h0L62,24a5,5,0,0,0-1.64-.49h-.07a1.32,1.32,0,0,0-.34,0,1,1,0,0,0-.35,0h0l.14-.11.19-.15a.05.05,0,0,1,0,0h0L60,23l.11-.17a0,0,0,0,0,0,0v0a1.38,1.38,0,0,0,.13-.18,1.9,1.9,0,0,1,.25-.35,1.7,1.7,0,0,0,.11-.16.8.8,0,0,0,.13-.18l.12-.17L61,21.6l.09-.16.15-.18.13-.15a1.74,1.74,0,0,0,.12-.18.84.84,0,0,1,.11-.18l.13-.18a2.51,2.51,0,0,0,.26-.34,1.34,1.34,0,0,1,.11-.17.86.86,0,0,0,.12-.18,1.35,1.35,0,0,0,.12-.17.92.92,0,0,1,.15-.17l.12-.16c.07-.09.12-.14.12-.17l.12-.18a1.38,1.38,0,0,0,.13-.18,1.24,1.24,0,0,1,.12-.16c.06-.09.11-.14.13-.17s.07-.09.12-.18l.13-.16a.77.77,0,0,1,.12-.18l.23-.27a1.43,1.43,0,0,1,.15-.11.75.75,0,0,1,.14-.12l.17-.15.1-.06h-.77l-.18,0h-.39l-.19,0H59l.11,0a.3.3,0,0,1,.13.2.6.6,0,0,1,0,.16,1,1,0,0,1,0,.22,1.57,1.57,0,0,1,0,.2,1,1,0,0,0,0,.2l-.05.21a.8.8,0,0,1,0,.19,1.88,1.88,0,0,1,.36-.18l.41-.12.2,0h1.46a.5.5,0,0,0,.21,0,.52.52,0,0,1,.21,0c.07,0,.08.06,0,.1a.27.27,0,0,1-.07.13l0,0-.08.1-.09.1a1.66,1.66,0,0,1-.12.2.56.56,0,0,1-.13.17.81.81,0,0,1-.13.19,1.74,1.74,0,0,1-.12.18l-.15.18a1.42,1.42,0,0,0-.14.18c-.06.1-.11.16-.12.19a2.51,2.51,0,0,1-.26.34l-.32.42c-.07.11-.28.39-.35.49l-.24.33-.11.18s-.06.08-.11.16a.91.91,0,0,0-.12.17l-.13.16-.11.16a1.77,1.77,0,0,0-.13.17l-.11.17a1.85,1.85,0,0,1-.24.33.64.64,0,0,0-.12.16l-.24.32-.07.09h0s0,0,0,.05h0a0,0,0,0,1,0,0h0l0,.07a1.23,1.23,0,0,1-.08.12l0,.07h0s0,0,0,0-.21.32-.32.47a2.69,2.69,0,0,0-.2.27s0,.07,0,.1h.07l.21-.11.05,0h0l0,0h0l.2-.07.21-.07.12,0,.14,0,.14,0,.13,0,.41,0a3.62,3.62,0,0,1,2.05.39l.25.11c.11.07.23.12.34.2l.27.2.23.16.06,0,0,0a2.41,2.41,0,0,0,.24.21,4.74,4.74,0,0,0,.7.38l.37.13c.12,0,.24.09.36.12l.39.06h.41s0,0,0,0,.27,0,.42,0a5.43,5.43,0,0,0,2.09-.69,2.56,2.56,0,0,0,.34-.29,1.74,1.74,0,0,0,.56-.8.94.94,0,0,0-.1-.73Zm-8.15.22h0l.11,0Z"/><path class="cls-1" d="M31.9,8.17l-7.1,3L20.17,0,15.53,11.15l-7.1-3,.89,7.47L0,10.93,2.31,24.11l17.86,4.78L38,24.11l2.31-13.18L31,15.64ZM20.17,25.92l-8.61-2.31a8.91,8.91,0,0,1,17.21,0Z"/></g></g></svg>