<?xml version="1.0" encoding="UTF-8" standalone="no"?><!DOCTYPE svg PUBLIC "-//W3C//DTD SVG 1.1//EN" "http://www.w3.org/Graphics/SVG/1.1/DTD/svg11.dtd"><svg width="100%" height="100%" viewBox="0 0 960 960" version="1.1" xmlns="http://www.w3.org/2000/svg" xmlns:xlink="http://www.w3.org/1999/xlink" xml:space="preserve" xmlns:serif="http://www.serif.com/" style="fill-rule:evenodd;clip-rule:evenodd;stroke-linecap:round;stroke-linejoin:round;"><g id="Capa-1" serif:id="Capa 1"><path id="path3230-2-7" d="M959.652,479.826c0,265.001 -214.825,479.826 -479.826,479.826c-265.001,0 -479.826,-214.825 -479.826,-479.826c0,-265.001 214.825,-479.826 479.826,-479.826c265.001,0 479.826,214.825 479.826,479.826Z" style="fill:#54bf36;"/><path id="path3262" d="M658.549,224.191l-0.886,-7.527l-2.435,-4.87l-3.763,-5.092l-3.542,-2.656l-3.985,-2.214l-6.863,-1.328l-16.603,-0.221l-10.405,-1.107l-3.099,-1.328l3.763,3.763l2.435,3.985l2.878,5.756l0.885,5.977l-0.232,6.199l-1.991,4.427l-0.665,3.542l1.329,4.207l4.87,3.099l6.421,2.878l7.748,1.549l13.725,-1.992l5.756,-3.764l3.1,-3.763l1.106,-4.206l0.453,-5.314Z" style="fill:#fff;fill-rule:nonzero;stroke:#fff;stroke-width:1.16px;"/><path id="path4032" d="M390.237,225.519l6.863,-2.656l2.878,-3.764l1.77,-3.542l0.444,-4.649l-0.885,-4.87l-1.992,-5.977l-2.656,-9.52l-1.329,-4.206l-0.233,-6.862l1.771,-4.871l3.542,-2.214l4.649,-1.992l5.092,-1.107l5.756,0.443l5.313,2.214l5.091,3.542l5.092,2.656l6.641,2.657l6.863,-0.443l4.87,-1.993l5.092,-3.984l6.42,-7.749l4.206,-5.534l5.092,-4.871l5.092,-3.099l6.863,-1.107l6.42,0.886l11.954,4.427l7.084,1.993l6.642,0.885l4.649,0l7.084,-2.656l7.748,-2.657l10.183,-1.992l7.085,0.442l7.305,2.878l7.527,3.985l5.534,5.756l6.863,9.077l5.092,7.969l4.428,8.855l-4.428,-0.885l-13.504,-0.443l-7.527,0.443l-6.863,0.885l-7.527,1.55l-9.076,3.321l-7.084,2.878l-2.878,3.32l-1.55,4.871l-0,4.206l1.329,4.87l3.099,9.741l-11.512,-4.649l-9.74,-4.428l-11.512,-5.534l-12.397,-4.87l-7.97,-2.657l-11.069,-1.771l-7.969,0.443l-7.085,3.763l-5.534,5.535l-2.215,7.748l-1.77,12.618l-2.215,10.184l-3.763,9.076l-4.87,1.993l-6.642,-0.886l-7.969,-3.763l-10.848,-7.527l-11.512,-10.848l-5.302,-5.534Z" style="fill:#fff;fill-rule:nonzero;stroke:#fff;stroke-width:1.16px;"/><path id="path3283" d="M350.142,278.093l-0,-13.632l1.726,-10.782l8.698,-13.275l4.009,-8.019c0.695,-1.666 0.909,-4.134 0.683,-7.336c-2.058,-3.516 -4.789,-4.344 -7.439,-5.498l-11.802,-3.66c-4.619,0.334 -9.749,-0.428 -12.954,1.604c-7.288,3.229 -6.095,4.763 -7.78,6.871l-5.613,13.633l-4.01,6.415l-5.613,3.207l-7.332,1.95c-0.453,1.269 -1.601,2.396 0.239,3.092l7.217,8.019c3.593,3.891 6.535,8.107 7.081,13.521l0.14,7.221c-0.56,4.619 -2.913,8.162 -4.931,11.905l-4.009,4.01l9.623,-2.406l11.465,-2.401l10.186,-4.014l7.217,-4.01l3.199,-6.415Z" style="fill:#fff;fill-rule:nonzero;stroke:#fff;stroke-width:1.16px;"/><path id="path3265" d="M378.358,232.357l-6.474,11.136l-4.115,11.972l-1.497,10.474l-1.496,8.979l-1.122,7.856l-3.367,4.863l-4.489,5.237l-4.863,2.619l-8.979,5.985l-8.604,2.245l-12.345,3.367l-13.094,2.619l-8.978,2.244l-6.36,2.245l12.346,5.237l11.971,4.115l13.467,4.115l19.453,6.36l17.209,3.367l6.733,3.741l9.353,14.215l5.237,4.115l5.612,2.619l8.978,0l4.863,2.619l4.489,3.367l2.245,6.359l-2.245,7.108l0,5.612l1.123,2.992l4.115,2.619l1.87,31.798l0.374,81.553l-4.115,29.554l-4.489,57.611l-3.367,34.417l-1.87,37.035l-0,22.072l1.496,32.172l4.489,19.827l7.108,14.59l6.36,7.856l2.618,1.122l7.482,17.209l8.605,11.223l10.474,7.856l8.23,4.489l0.374,1.122l10.475,1.496l14.964,1.871l14.59,-0.748l5.985,-4.115l7.482,-4.489l6.734,-9.353l6.36,-7.856l3.741,-6.36c5.236,-3.429 8.674,-3.62 16.661,-12l8.403,-14.56l5.986,-15.338l4.115,-19.827l1.496,-19.453l-1.496,-32.921l-2.245,-31.05l-1.87,-25.064l-1.123,-24.317l-0.748,-34.042l1.497,-63.223l-2.245,-53.87l-0,-30.675l-0.748,-23.569l2.504,-0.505l2.763,2.534l5.066,1.611l3.455,0.691l1.382,-1.381l6.218,-8.06l7.599,-8.06l4.145,-5.297l0.92,-3.224l0,-3.224l0.69,-2.303l3.915,-6.678l8.291,-7.139l8.75,-5.987l10.133,-5.066l11.974,-4.836l9.903,-5.757l7.369,-5.066l5.296,-4.145l2.994,-3.224l2.533,-3.224l-4.145,-0l-8.06,-1.382l-6.678,-2.073l-4.145,-2.763l-1.843,-2.994l-0.46,-5.066l3.454,-7.369l7.369,-10.133l6.218,-7.599l2.533,-4.145l1.843,-3.454l0.92,-2.303l-3.684,1.842l-5.988,1.842l-7.369,1.843l-7.139,0.46l-5.987,0.461l-8.29,-0.461l-5.757,-1.382c-0,0 -4.145,-3.684 -4.145,-1.842c-0,1.842 -6.448,-3.915 -6.448,-3.915l-4.606,-4.836l-2.073,-6.217l0,-5.988l1.843,-9.672l1.383,-5.987l-1.843,-4.145l-3.915,-3.685l-9.211,-2.993l-8.751,-1.152l-11.054,0l-8.981,0.461l-7.369,1.382l-6.217,2.763l-3.685,5.987l-0.232,9.212l1.152,7.599l-1.612,6.218l-4.376,1.611l-7.369,-0.69l-11.053,-3.455l-10.824,-3.684l-12.896,-5.066l-11.744,-4.376l-8.06,-1.842l-5.757,-0.691l-4.606,0.23l-6.908,1.842l-4.376,4.836l-1.382,7.83l-1.843,9.902l-1.382,7.369l-2.533,5.987l-3.685,5.067l-5.066,3.915l-5.757,1.381l-7.83,0l-7.599,-2.073l-9.442,-5.526l-10.362,-6.909l-7.6,-6.908l-5.527,-5.067l-5.757,-4.605l-2.013,-1.696Z" style="fill:#fff;fill-rule:nonzero;stroke:#fff;stroke-width:1.16px;"/><path id="path4036" d="M532.592,328.47l-1.842,-22.798l-0.92,-18.883l-0.921,-4.836l-2.533,6.448l-2.072,7.138l-1.613,6.909l-1.153,7.599l-0.232,6.218l0.69,8.751l0.69,16.58l-0.46,16.35l-0.69,24.18l1.843,-0.23l-0.233,11.514l0.923,17.502l0.69,10.593l1.383,19.344l3.454,56.88l-0.92,24.64l-0.69,19.574l0.46,16.811l-0.233,9.211l0.46,41.221l2.534,36.384l1.152,20.496l1.153,11.053l4.145,61.716l0.69,7.139l-0.92,8.751l-1.153,4.836l-0.232,4.375l5.066,-3.915l4.145,-4.375l2.073,-3.224l2.072,-3.685l2.533,-8.29l2.303,-13.817l2.072,-34.542l0,-24.18l-1.152,-29.476l-1.613,-30.858l-1.152,-20.726l-1.843,-25.561l-0.92,-8.751l0,-22.338l-0.46,-17.962l-0.69,-19.804l-1.613,-88.429l0,-27.173l-0.92,-8.29l-1.152,-9.903l-0.92,-10.362l-0,-7.6l-0.921,-5.527l-0.92,-2.763l-1.152,-1.612l-1.613,-0.46l-2.533,-0.691l-1.383,-0l-2.757,-1.152Z" style="fill:#54bf36;fill-rule:nonzero;stroke:#54bf36;stroke-width:1.16px;"/><path id="path4038" d="M423.438,294.849l10.132,5.296l8.982,3.685l5.526,1.612l6.448,0.46l3.915,-2.072l0.46,-4.376l-1.843,-5.066l0.691,-1.382l5.757,7.37l8.06,11.053l14.047,20.265l7.599,11.975l10.593,15.198l3.685,9.903l2.994,9.441l1.152,8.06l1.843,0.691l-0,9.672l0.69,9.442l0.92,24.87l-1.613,48.59l-1.842,63.328l2.533,36.385l4.375,72.999l2.073,35.925l0.92,43.984l-1.843,23.028l-5.757,17.041l-4.375,6.909l-6.678,5.526l-9.442,4.606l-7.139,2.303l-9.902,-0l-7.829,-3.454l-10.824,-8.521l-8.29,-12.896l-6.448,-19.113l-1.612,-20.956l0.46,-16.811l0.46,-25.101l1.15,-12.665l1.842,-35.233l5.067,-40.3l5.527,-44.905l2.993,-33.161l0.69,-18.423l0.232,-8.06l0,-7.599l-0.46,-10.823l2.303,16.35l0.92,15.659l2.073,19.804l1.612,15.429l3.685,40.53l2.763,32.7l2.534,32.47l1.152,12.896l0,33.161l-0.232,19.574l-1.153,20.035l2.073,3.224l2.303,1.381l2.993,-0.23l2.534,-1.612l-0.233,-1.612l1.613,-33.621l-0.46,-20.035l0.232,-8.981l-1.843,-34.542l-3.223,-40.76l-3.455,-36.846l-6.908,-69.085l-2.994,-37.766l-2.994,-27.174l-0.46,-2.072l-0.92,-0.23l2.763,-30.858l2.073,0.691l-0.69,-2.303l-1.153,-3.455l0.233,-5.526l-0.69,-10.824l-0,-5.987l-0.92,-9.211l-3.224,-11.054l-3.915,-9.442l-6.448,-10.823l-8.29,-11.054l-7.83,-7.369l-5.297,-4.836l-6.446,-5.296Z" style="fill:#54bf36;fill-rule:nonzero;stroke:#54bf36;stroke-width:1.16px;"/><path id="path4040" d="M425.809,742.316l-0.802,-27.233l1.603,-40.849l11.214,-73.689l10.412,-66.48l2.403,-24.83l0,-24.83l1.601,-95.314l-4.805,-18.423l-4.005,-6.407l-5.025,-7.723l-6.809,-8.011l-10.414,-8.01l3.605,10.013l4.005,6.809l4.005,7.61l0,8.01l0.4,7.21l-0.802,7.61l-1.601,5.607l1.201,4.006l1.202,11.615l0.399,15.22l1.202,25.233l0.399,21.629l-1.201,27.636l0,12.016l-5.207,52.068l-3.605,24.032l-2.003,25.634l-1.601,12.817l-1.199,33.243l-0.801,27.236l-0.802,16.822l0.802,17.623l1.201,10.414l2.403,8.812l2.625,2.874Z" style="fill:#54bf36;fill-rule:nonzero;stroke:#54bf36;stroke-width:1.16px;"/></g></svg>