<?xml version="1.0" encoding="UTF-8" standalone="no"?><!DOCTYPE svg PUBLIC "-//W3C//DTD SVG 1.1//EN" "http://www.w3.org/Graphics/SVG/1.1/DTD/svg11.dtd"><svg width="100%" height="100%" viewBox="0 0 3999 3999" version="1.1" xmlns="http://www.w3.org/2000/svg" xmlns:xlink="http://www.w3.org/1999/xlink" xml:space="preserve" xmlns:serif="http://www.serif.com/" style="fill-rule:evenodd;clip-rule:evenodd;"><g id="Capa-1" serif:id="Capa 1"><path id="path3230-2-8-5" d="M3998.55,1999.28c0,1104.17 -895.104,1999.28 -1999.28,1999.28c-1104.17,0 -1999.28,-895.104 -1999.28,-1999.28c0,-1104.17 895.104,-1999.28 1999.28,-1999.28c1104.17,0 1999.28,895.108 1999.28,1999.28Z" style="fill:#1cb6f1;"/><path id="path4196" d="M2643.54,2290.16l-23.071,191.325l-24.288,86.467c-8.791,34.592 -22.391,66.438 -38.216,97.008c-15.492,24.092 -45.167,44.134 -67.759,66.2l-119.408,86.842l-92.271,58.346l-69.204,33.925l-142.475,1.354l-80.058,-2.708c-66.967,3.504 -140.85,0.096 -211.434,-0c-75.575,-30.6 -147.662,-85.609 -221.425,-128.909l-130.262,-107.2l-40.396,-89.4l-32.567,-148.279l-19.308,-201.958l16.283,-84.129l29.029,-50.275l29.317,-35.213l33.925,-77.346l63.775,-158.758l33.921,-51.562l55.637,-47.492l71.913,-33.925l32.567,-24.421l17.641,-21.712l8.142,-17.642l9.5,-35.279l12.212,-27.138l36.634,-8.141l37.996,13.57l40.708,27.138l36.637,8.142l39.35,-5.434l31.655,0.388c6.833,2.179 5.041,4.358 6.408,6.537l12.658,1.596l5.296,4.163l2.642,-7.184l10.971,0.388l6.429,-6.05l19.287,-0.388l25.338,3.409l20.041,-0.388l21.559,0.775l18.533,-4.162l15.125,-6.809l26.096,-17.775l10.587,-4.162l13.996,-5.296l18.909,-5.675l22.312,0.775l17.396,12.104l8.696,21.554l5.675,41.604l11.725,14.371l24.958,27.609l55.971,27.983l34.416,16.262l34.792,24.963l22.313,23.067l25.72,44.25l8.317,16.641l23.825,47.65l28.742,70.721l9.833,26.096l30.633,69.967l34.038,50.675l26.85,45.383l5.296,14.371l10.966,25.337l-1.05,105.854Z" style="fill:#fff;fill-rule:nonzero;stroke:#fff;stroke-width:4.83px;"/><path id="path4198" d="M1335.51,2096.62l32.2,-41.083l2.908,-0l13.092,-17.455l33.454,-90.183l27.637,-81.454l-143.696,-109.8l25.875,-40.025l17.455,-61.092l-0.863,-99.966l-16.596,-94.946l68.367,-39.271l98.512,-76.942l105.125,-115.062l58.184,-114.913l21.821,-116.367c-2.971,-29.208 -2.034,-50.612 -11.638,-93.091l-10.183,-45.092l-33.454,61.092l-46.546,75.637l-59.638,68.367l-52.366,56.725l-62.546,50.912l-59.638,39.271l-41.783,21.867l2.508,-82.958l32.004,-173.092l53.817,-138.188l52.367,-125.091l-58.184,43.637l-87.275,55.275l-43.637,33.454l-62.546,62.546l-52.367,66.913l-48,68.362l-49.454,104.73l-39.275,138.187l-11.637,94.546l-2.909,74.183l11.638,107.638l17.454,68.366l23.271,71.275l24.729,42.18l27.638,26.183l24.729,18.908l29.091,50.913l17.455,34.908l42.183,80.004l43.637,55.271l29.092,34.913l27.238,28.645l17.3,16.95c9.995,-2.016 8.412,-5.979 13.445,4.213l0.005,-0Z" style="fill:#fff;fill-rule:nonzero;stroke:#fff;stroke-width:4.83px;"/><path id="path4200" d="M1333.67,2104.33l-68.346,-22.05l-53.462,-17.637l-54.567,-14.329l-30.317,-6.617l-24.25,-4.408l-16.537,2.754l-13.779,5.512l-10.471,8.821l-19.292,16.534l-9.921,7.716l-6.616,12.679l1.104,13.78l3.858,16.533l13.229,20.946l18.738,17.087l18.742,14.883l29.762,22.596l36.929,19.842l30.867,14.883l33.071,14.884l67.796,27.558l-64.488,9.371l-70,10.471l-58.979,6.616l-40.788,6.613l-20.391,9.921l-15.434,15.983l-8.82,22.05l-6.613,23.15l0.55,21.496l12.129,18.737l22.596,13.78l27.558,9.37l33.625,8.267l31.967,3.858l40.238,1.655l45.745,-0.55l37.484,-3.309l41.337,-3.858l9.371,-2.204l-16.537,6.062l-25.905,8.821l-50.708,23.15l-46.85,31.967l-23.7,19.291l-23.704,22.046l-25.904,29.767l-19.842,29.762l-11.025,23.7l-3.308,29.213l10.475,22.046l13.229,14.883l12.675,8.267l14.883,8.271l16.534,4.408l17.087,-3.308l24.254,-8.817l20.942,-9.921l25.354,-15.433l29.767,-18.742l20.391,-11.575l24.805,-11.025l35.275,-14.329l26.458,-7.167l11.575,-3.304l-18.192,11.021l-17.637,13.779l-28.663,26.458l-12.675,18.188l-18.187,28.112l-15.434,31.967l-9.92,26.458l-3.859,15.984l1.65,19.841l4.963,23.7l17.637,15.434l14.334,5.512l7.162,0.554l13.779,6.613l15.434,4.408l22.6,-7.162l19.841,-14.334l25.904,-26.454l22.6,-15.433l47.4,-28.663l30.867,-13.779l6.617,-3.858l-18.192,-14.329l-26.454,-21.5l-18.192,-20.392l-19.287,-24.804l-13.784,-22.046l-27.558,-63.937l-12.675,-41.892l-18.742,-79.921l-2.754,-25.354l-17.087,-118.504l-3.859,-56.771l2.205,-74.958l2.754,-17.638l2.758,-4.412l-0.554,-4.959l1.654,-18.742l12.125,-26.454l11.575,-23.15Z" style="fill:#fff;fill-rule:nonzero;stroke:#fff;stroke-width:4.83px;"/><path id="path4202" d="M871.579,1929.37l6.396,15.304l14.913,25.2l16.458,27.254l14.912,19.029l15.946,21.6l11.313,12.342l9.254,7.2l13.887,6.688l11.313,1.541l15.429,-0.512l14.913,-7.2l14.916,-14.917l8.225,-20.571l1.029,-19.025l-8.229,-30.858l-15.425,-17.484l-30.341,-38.058l-33.942,-48.854l-23.146,-34.971l-13.883,-21.6l-16.459,-15.429l-11.825,-7.713l-16.97,-4.112l-17.488,7.712l-11.829,11.83l-3.083,16.97l3.083,19.03l5.146,24.171l8.741,25.712l5.142,14.913l6.338,13.158l5.266,11.65Z" style="fill:#fff;fill-rule:nonzero;stroke:#fff;stroke-width:4.83px;"/><path id="path4204" d="M805.838,1573.9l-1.892,17.775l-3.025,17.775l0.379,31.387l0.754,26.855l1.134,21.554l2.27,26.854l1.513,15.883l2.271,10.213l5.291,9.454l6.434,9.454l7.562,4.163l10.588,4.537l11.725,-1.516l12.479,-4.538l7.942,-9.454l4.541,-8.321l3.025,-9.454l0.754,-8.321l0.755,-7.183l-3.405,-4.542l-6.808,-21.175l-9.075,-35.175l-4.917,-23.067l-1.891,-12.858l-8.321,-28.367l-9.075,-31.766l-7.563,-19.288l-3.404,-5.296l-4.537,-2.645l-6.434,6.808l-4.537,13.233l-2.267,10.592l-2.266,6.429Z" style="fill:#fff;fill-rule:nonzero;stroke:#fff;stroke-width:4.83px;"/><path id="path4206" d="M670.446,1920.32l-4.917,4.916l-4.162,16.642l-2.267,16.263l-1.892,21.933l-1.133,26.85l0.375,17.775l0.758,17.4l3.025,21.933l4.917,22.692l5.671,22.692l4.917,7.562l4.158,10.971l5.675,9.075l9.075,4.917l12.479,1.891l9.833,-2.65l3.405,-2.645l13.616,-7.942l6.05,-8.696l2.271,-6.054l2.646,-9.454l-2.646,-15.884l-7.187,-10.212l-18.155,-36.683l-11.345,-32.525l-12.859,-45.384l-8.316,-26.471l-5.675,-15.508l-3.025,-5.292l-5.292,1.888Z" style="fill:#fff;fill-rule:nonzero;stroke:#fff;stroke-width:4.83px;"/><path id="path4208" d="M800.363,2300.97l-16.642,-15.875l-18.529,-13.934l-18.534,-15.875l-9.454,-13.612l-8.696,-17.817l-7.187,-16.204l-1.133,-11.337l0.262,-18.175l8.617,-9.321l9.079,-5.413c6.183,-8.012 12.367,-7.579 18.55,-6.862l22.075,9.437l33.792,24.475l33.462,23.934l34.971,20.745l43.754,24.35l31.808,18.155l7.184,1.945l13.237,13.934l5.671,5.829l4.538,10.371l-0.375,8.1l-3.025,11.987l-5.296,10.692l-6.429,9.721l-6.055,5.508l-10.966,5.508l-12.859,3.567l-15.504,-0.65l-12.104,-1.621l-25.337,-9.071l-27.23,-14.904l-27.229,-15.879l-19.287,-10.692l-15.129,-11.016Z" style="fill:#fff;fill-rule:nonzero;stroke:#fff;stroke-width:4.5px;"/><path id="path3330" d="M1046.86,2884.99l32.475,-72.334c5.387,-8.487 13.083,-13.133 11.075,-33.954c-5.15,-16.421 -5.042,-18.183 -11.071,-28.054c-8.121,-16.242 -16.242,-15.954 -24.359,-22.883c-16.375,-11.205 -25.583,-4.496 -37.154,-3.688c-22.462,12.646 -27.241,21.75 -37.641,31.983l-39.125,99.159l-13.284,58.312l-5.908,66.43l12.796,38.383l25.587,19.192l24.359,-5.659l13.533,-18.7l29.033,-78.487l19.684,-49.7Z" style="fill:#fff;fill-rule:nonzero;stroke:#fff;stroke-width:4.83px;"/><path id="path4100" d="M946.854,3078.53l10.829,-13.783l7.875,-3.938l10.2,-1.95l15.396,0.971l12.8,4.921l5.904,13.783l1.971,7.875l5.909,14.767l3.937,15.75l6.892,26.129l10.829,27.033l13.779,32.488l8.863,25.596l10.829,19.691l4.921,10.83l-0,8.858l-9.842,0.987l-16.738,-7.879l-14.766,-9.841l-23.629,-20.675l-18.705,-25.596l-24.612,-37.413l-10.829,-24.079l-10.2,-28.725l-3.584,-21.029l1.971,-14.771Z" style="fill:#fff;fill-rule:nonzero;stroke:#fff;stroke-width:4.83px;"/><path id="path4102" d="M1394.56,3163.59l6.495,-7.142l8.446,-6.496l10.392,-6.908l16.237,-0l31.825,9.504l31.825,9.746l21.434,6.496l29.229,8.441l22.733,4.546l26.629,6.496l21.434,6.496l10.391,9.741l-3.245,5.196l-9.742,4.546l-11.692,3.25l-12.991,1.95l-18.184,4.546l-23.383,1.946l-16.238,0.65l-24.683,-0l-21.433,-1.95l-25.979,-2.596l-20.138,-3.896l-25.329,-5.846l-16.238,-10.391l-10.391,-13.642l-0,-17.538l2.596,-7.145Z" style="fill:#fff;fill-rule:nonzero;stroke:#fff;stroke-width:4.83px;"/><path id="path4104" d="M1308.83,3017.45l-2.6,-17.537l-0.646,-17.538l0,-12.337l2.596,-12.992l0,-8.442l0.65,-7.795l-3.25,-13.638l-11.041,-16.238l-9.092,-9.745l-16.238,-6.496l-10.391,-6.492l-10.392,0l-11.692,1.946l-25.979,16.237l-11.691,17.538l-3.25,12.342l-3.896,22.733l0.65,24.679l3.246,29.229l4.545,25.329l6.496,24.684l12.342,27.279l16.887,24.033l23.384,28.813l25.329,14.054l20.133,12.987l24.034,6.496l16.887,1.95l14.288,-3.896l7.145,-9.091l5.846,-11.042l3.896,-11.458l-3.896,-19.071l-11.691,-17.538l-20.784,-25.979l-14.937,-20.133l-8.446,-14.942l-5.846,-14.287l-2.596,-13.642Z" style="fill:#fff;fill-rule:nonzero;stroke:#fff;stroke-width:4.83px;"/><path id="path4198-9" d="M2663,2112.22l-32.2,-41.08l-2.908,0l-13.092,-17.454l-33.454,-90.183l-27.637,-81.458l143.695,-109.796l-25.875,-40.025l-17.454,-61.092l0.863,-99.966l16.596,-94.946l-68.367,-39.275l-98.513,-76.938l-105.125,-115.066l-58.183,-114.909l-21.821,-116.366c2.971,-29.209 2.034,-50.613 11.638,-93.096l10.183,-45.092l33.454,61.096l46.546,75.637l59.638,68.363l52.366,56.729l62.546,50.913l59.638,39.27l41.783,21.867l-2.513,-82.958l-32,-173.096l-53.816,-138.183l-52.367,-125.092l58.183,43.637l87.275,55.271l43.638,33.459l62.546,62.545l52.366,66.909l48,68.366l49.455,104.73l39.275,138.183l11.637,94.55l2.908,74.183l-11.637,107.638l-17.454,68.366l-23.275,71.271l-24.725,42.184l-27.638,26.183l-24.729,18.908l-29.092,50.913l-17.454,34.908l-42.183,80l-43.638,55.275l-29.091,34.913l-27.238,28.645l-17.3,16.95c-9.996,-2.016 -8.412,-5.979 -13.446,4.209l-0.004,-0Z" style="fill:#fff;fill-rule:nonzero;stroke:#fff;stroke-width:4.83px;"/><path id="path4200-7" d="M2664.84,2119.93l68.35,-22.046l53.462,-17.637l54.567,-14.329l30.316,-6.617l24.25,-4.408l16.538,2.754l13.779,5.512l10.471,8.821l19.292,16.534l9.92,7.716l6.617,12.679l-1.104,13.78l-3.858,16.533l-13.23,20.946l-18.737,17.087l-18.742,14.879l-29.762,22.6l-36.929,19.842l-30.867,14.883l-33.071,14.884l-67.796,27.558l64.488,9.367l70,10.475l58.975,6.612l40.787,6.617l20.396,9.921l15.433,15.983l8.817,22.046l6.617,23.15l-0.554,21.496l-12.125,18.741l-22.596,13.78l-27.563,9.37l-33.621,8.267l-31.966,3.858l-40.238,1.655l-45.75,-0.55l-37.479,-3.309l-41.337,-3.858l-9.371,-2.204l16.537,6.062l25.904,8.817l50.709,23.15l46.85,31.971l23.7,19.291l23.7,22.046l25.908,29.763l19.842,29.766l11.025,23.7l3.304,29.213l-10.471,22.046l-13.229,14.883l-12.675,8.267l-14.883,8.271l-16.534,4.408l-17.087,-3.308l-24.254,-8.821l-20.942,-9.921l-25.354,-15.433l-29.767,-18.738l-20.392,-11.575l-24.804,-11.025l-35.275,-14.329l-26.458,-7.167l-11.575,-3.308l18.191,11.025l17.638,13.779l28.658,26.458l12.679,18.188l18.188,28.112l15.433,31.967l9.921,26.458l3.858,15.984l-1.654,19.841l-4.958,23.7l-17.638,15.434l-14.333,5.512l-7.162,0.55l-13.78,6.617l-15.433,4.408l-22.6,-7.166l-19.842,-14.33l-25.908,-26.458l-22.596,-15.433l-47.404,-28.659l-30.862,-13.779l-6.617,-3.858l18.188,-14.333l26.458,-21.496l18.187,-20.392l19.292,-24.804l13.779,-22.046l27.563,-63.937l12.675,-41.892l18.741,-79.921l2.755,-25.354l17.087,-118.504l3.858,-56.771l-2.204,-74.963l-2.754,-17.637l-2.758,-4.408l0.554,-4.959l-1.654,-18.741l-12.13,-26.459l-11.574,-23.15Z" style="fill:#fff;fill-rule:nonzero;stroke:#fff;stroke-width:4.83px;"/><path id="path4202-7" d="M3126.94,1944.97l-6.396,15.308l-14.917,25.2l-16.454,27.254l-14.913,19.029l-15.945,21.6l-11.313,12.342l-9.258,7.2l-13.884,6.683l-11.312,1.546l-15.429,-0.517l-14.913,-7.2l-14.916,-14.912l-8.23,-20.571l-1.025,-19.029l8.225,-30.854l15.43,-17.488l30.341,-38.054l33.942,-48.854l23.142,-34.971l13.887,-21.6l16.454,-15.429l11.829,-7.713l16.971,-4.116l17.488,7.716l11.825,11.83l3.087,16.97l-3.087,19.025l-5.142,24.171l-8.742,25.717l-5.141,14.912l-6.338,13.159l-5.266,11.646Z" style="fill:#fff;fill-rule:nonzero;stroke:#fff;stroke-width:4.83px;"/><path id="path4204-7" d="M3192.68,1589.5l1.892,17.775l3.025,17.775l-0.379,31.387l-0.754,26.855l-1.134,21.554l-2.271,26.854l-1.512,15.883l-2.271,10.209l-5.296,9.458l-6.429,9.454l-7.562,4.159l-10.592,4.537l-11.721,-1.512l-12.483,-4.538l-7.942,-9.454l-4.537,-8.321l-3.025,-9.454l-0.755,-8.321l-0.754,-7.188l3.404,-4.537l6.805,-21.179l9.079,-35.171l4.916,-23.071l1.892,-12.858l8.317,-28.363l9.079,-31.766l7.562,-19.288l3.405,-5.296l4.537,-2.646l6.429,6.805l4.538,13.237l2.271,10.592l2.266,6.429Z" style="fill:#fff;fill-rule:nonzero;stroke:#fff;stroke-width:4.83px;"/><path id="path4206-9" d="M3328.07,1935.92l4.917,4.916l4.158,16.642l2.271,16.258l1.891,21.938l1.134,26.85l-0.375,17.775l-0.759,17.396l-3.025,21.937l-4.916,22.692l-5.671,22.692l-4.917,7.562l-4.162,10.967l-5.671,9.079l-9.075,4.917l-12.483,1.887l-9.83,-2.646l-3.404,-2.646l-13.617,-7.941l-6.049,-8.7l-2.271,-6.05l-2.646,-9.454l2.646,-15.884l7.187,-10.212l18.15,-36.684l11.346,-32.525l12.858,-45.383l8.321,-26.475l5.675,-15.504l3.025,-5.296l5.292,1.892Z" style="fill:#fff;fill-rule:nonzero;stroke:#fff;stroke-width:4.83px;"/><path id="path4208-4" d="M3198.15,2316.57l16.638,-15.88l18.533,-13.929l18.529,-15.879l9.459,-13.608l8.695,-17.821l7.188,-16.2l1.133,-11.338l-0.262,-18.174l-8.617,-9.321l-9.079,-5.413c-6.183,-8.016 -12.367,-7.579 -18.55,-6.867l-22.075,9.442l-33.796,24.471l-33.458,23.938l-34.975,20.745l-43.75,24.35l-31.809,18.155l-7.183,1.945l-13.237,13.93l-5.671,5.833l-4.538,10.371l0.375,8.1l3.025,11.987l5.296,10.692l6.429,9.721l6.05,5.508l10.971,5.508l12.858,3.567l15.505,-0.65l12.1,-1.621l25.341,-9.071l27.229,-14.904l27.23,-15.879l19.287,-10.692l15.129,-11.016Z" style="fill:#fff;fill-rule:nonzero;stroke:#fff;stroke-width:4.5px;"/><path id="path3330-2" d="M2951.65,2900.59l-32.475,-72.333c-5.391,-8.487 -13.083,-13.133 -11.075,-33.954c5.15,-16.417 5.042,-18.183 11.071,-28.05c8.121,-16.242 16.238,-15.958 24.358,-22.883c16.375,-11.209 25.584,-4.5 37.155,-3.688c22.458,12.642 27.241,21.75 37.641,31.984l39.121,99.154l13.288,58.316l5.904,66.43l-12.792,38.383l-25.587,19.192l-24.363,-5.659l-13.529,-18.704l-29.033,-78.483l-19.684,-49.704Z" style="fill:#fff;fill-rule:nonzero;stroke:#fff;stroke-width:4.83px;"/><path id="path4100-2" d="M3051.66,3094.12l-10.83,-13.783l-7.875,-3.938l-10.2,-1.95l-15.395,0.967l-12.8,4.925l-5.909,13.783l-1.966,7.875l-5.909,14.767l-3.937,15.75l-6.892,26.129l-10.829,27.033l-13.784,32.488l-8.858,25.596l-10.829,19.691l-4.921,10.83l0,8.858l9.842,0.983l16.737,-7.875l14.767,-9.846l23.629,-20.671l18.704,-25.595l24.613,-37.413l10.829,-24.079l10.2,-28.725l3.583,-21.029l-1.97,-14.771Z" style="fill:#fff;fill-rule:nonzero;stroke:#fff;stroke-width:4.83px;"/><path id="path4102-2" d="M2603.95,3179.19l-6.496,-7.142l-8.445,-6.496l-10.392,-6.908l-16.238,-0l-31.825,9.504l-31.825,9.742l-21.433,6.495l-29.229,8.446l-22.734,4.546l-26.629,6.496l-21.433,6.496l-10.392,9.741l3.246,5.196l9.742,4.546l11.691,3.25l12.992,1.946l18.183,4.546l23.384,1.95l16.237,0.65l24.684,-0l21.433,-1.95l25.979,-2.596l20.133,-3.9l25.334,-5.846l16.237,-10.392l10.392,-13.637l-0,-17.538l-2.596,-7.145Z" style="fill:#fff;fill-rule:nonzero;stroke:#fff;stroke-width:4.83px;"/><path id="path4104-2" d="M2689.69,3033.05l2.6,-17.537l0.645,-17.538l0,-12.341l-2.595,-12.988l-0,-8.446l-0.65,-7.792l3.25,-13.641l11.041,-16.238l9.092,-9.741l16.237,-6.496l10.392,-6.496l10.392,0l11.691,1.95l25.98,16.238l11.691,17.537l3.246,12.342l3.9,22.733l-0.65,24.679l-3.246,29.229l-4.546,25.33l-6.495,24.683l-12.342,27.279l-16.888,24.029l-23.383,28.817l-25.329,14.054l-20.138,12.988l-24.029,6.495l-16.887,1.95l-14.292,-3.895l-7.142,-9.096l-5.845,-11.042l-3.9,-11.454l3.9,-19.071l11.691,-17.537l20.784,-25.98l14.937,-20.137l8.442,-14.938l5.846,-14.287l2.6,-13.642Z" style="fill:#fff;fill-rule:nonzero;stroke:#fff;stroke-width:4.83px;"/></g></svg>