<?xml version="1.0" encoding="UTF-8" standalone="no"?><!DOCTYPE svg PUBLIC "-//W3C//DTD SVG 1.1//EN" "http://www.w3.org/Graphics/SVG/1.1/DTD/svg11.dtd"><svg width="100%" height="100%" viewBox="0 0 960 960" version="1.1" xmlns="http://www.w3.org/2000/svg" xmlns:xlink="http://www.w3.org/1999/xlink" xml:space="preserve" xmlns:serif="http://www.serif.com/" style="fill-rule:evenodd;clip-rule:evenodd;"><g id="Capa-1" serif:id="Capa 1"><path id="path3230-2-8-3" d="M959.652,479.826c0,265.001 -214.825,479.826 -479.826,479.826c-265.001,0 -479.826,-214.825 -479.826,-479.826c0,-265.001 214.825,-479.826 479.826,-479.826c265.001,0 479.826,214.825 479.826,479.826Z" style="fill:#f68d2f;"/><path id="path4366" d="M126.948,468.488l10.553,-46.607l11.431,-35.175c5.634,-12.158 10.192,-25.92 20.226,-41.012l19.409,-24.854c5.203,-7.296 13.937,-13.71 21.921,-20.312l25.502,-10.552c9.414,-1.633 18.827,-1.121 28.241,0.924c9.839,2.691 16.558,5.694 22.762,8.749c9.963,4.838 17.685,10.797 25.502,16.708l23.743,25.502c10.22,10.173 17.234,22.351 24.622,34.295l14.07,23.743l12.311,28.14l13.191,36.933l8.793,37.813l2.639,22.864l-0,23.742l-3.518,21.985l-4.397,21.105l-6.155,19.346l-14.07,24.622l-14.949,16.708l-18.467,15.829l-21.985,14.069l-28.982,7.634c-13.425,2.944 -22.887,0.954 -31.694,2.919l-36.933,-3.518l-34.296,-16.708l-26.381,-18.466c-10.748,-13.777 -20.476,-27.554 -28.139,-41.331l-13.191,-33.416l-4.397,-24.622l-0.898,-37.55l1.777,-24.885l1.759,-24.622Z" style="fill:#fefefe;fill-rule:nonzero;stroke:#fefefe;stroke-width:1.16px;"/><path id="path4368" d="M210.458,428.278l7.541,-24.364l9.862,-19.144l15.082,-18.563l15.663,-10.152l4.641,-5.511l1.74,-11.312c-0.348,-2.598 -3.131,-6.007 -8.121,-10.151l-6.961,-2.901l-7.541,0l-15.083,10.442l-17.403,16.243l-10.442,13.342l-6.961,12.762l-4.641,12.762l-5.801,15.083l-4.061,16.243l-1.74,11.602l0,4.061l5.221,5.22l6.381,4.641l10.152,1.16l8.991,-5.801l2.031,-7.251l1.45,-8.411Z" style="fill:#f68d2f;fill-rule:nonzero;stroke:#f68d2f;stroke-width:1.16px;"/><path id="path4366-3" d="M647.348,427.362l47.309,6.739l35.986,8.542c12.575,4.629 26.661,8.056 42.517,16.834l26.345,17.33c7.695,4.594 14.796,12.779 22.023,20.202l12.585,24.562c2.391,9.25 2.643,18.674 1.368,28.223c-1.884,10.024 -4.332,16.965 -6.874,23.397c-4.015,10.322 -9.327,18.502 -14.585,26.772l-23.493,25.732c-9.312,11.012 -20.881,18.99 -32.186,27.322l-22.524,15.949l-27.049,14.552l-35.743,16.141l-36.975,11.831l-22.574,4.483l-23.665,1.925l-22.197,-1.723l-21.392,-2.672l-19.781,-4.566l-25.682,-12.028l-17.866,-13.545l-17.273,-17.123l-15.806,-20.771l-9.958,-28.268c-4.024,-13.142 -2.807,-22.734 -5.479,-31.353l0.511,-37.097l13.872,-35.537l16.267,-27.791c12.86,-11.831 25.803,-22.643 38.913,-31.398l32.237,-15.857l24.184,-6.378l37.354,-3.94l24.947,-0.246l24.684,-0.243Z" style="fill:#fefefe;fill-rule:nonzero;stroke:#fefefe;stroke-width:1.16px;"/><path id="path4368-7" d="M694.196,507.336l24.896,5.541l19.88,8.277l19.725,13.528l11.388,14.788l5.869,4.179l11.416,0.818c2.561,-0.559 5.733,-3.609 9.46,-8.918l2.326,-7.174l-0.611,-7.516l-11.63,-14.186l-17.601,-16.029l-14.145,-9.326l-13.284,-5.903l-13.097,-3.591l-15.503,-4.559l-16.519,-2.731l-11.705,-0.794l-4.047,0.33l-4.78,5.627l-4.108,6.736l-0.334,10.212l6.511,8.492l7.392,1.436l8.501,0.763Z" style="fill:#f68d2f;fill-rule:nonzero;stroke:#f68d2f;stroke-width:1.16px;"/><path id="path3388" d="M365.871,321.807c7.651,-23.894 18.454,-45.896 31.078,-66.806c15.159,-23.856 30.352,-47.503 46.487,-65.505c13.698,-14.745 28.491,-28.094 47.981,-35.11c12.529,-7.706 25.057,-9.018 37.585,-8.826c14.814,2.967 29.14,11.885 41.964,20.822c14.157,12.855 21.473,22.67 26.723,31.567c10.449,19.017 20.833,38.035 26.413,57.052l12.342,47.106c2.865,18.306 5.729,42.083 8.594,67.308l0,24.831l-34.671,-2.953c-18.867,-0.118 -38.659,-0.699 -51.796,2.049c-22.211,0.685 -39.637,9.744 -58.083,17.02l-30.381,20.01l-29.841,26.426l-23.243,-55.996c-4.222,-9.964 -11.364,-22.848 -20.564,-37.79c-8.877,-12.153 -16.94,-23.328 -30.588,-41.205l0,0Z" style="fill:#fefefe;fill-rule:nonzero;stroke:#fefefe;stroke-width:1.16px;"/><path id="path4368-1" d="M474.907,279.142l10.389,-23.293l12.072,-17.833l17.186,-16.634l16.76,-8.215l5.264,-4.919l3.075,-11.024c-0.046,-2.621 -2.394,-6.337 -6.854,-11.046l-6.566,-3.709l-7.488,-0.898l-16.219,8.571l-9.607,7.027l-9.606,7.027l-11.957,12.004l-8.431,11.843l-6.128,12.118l-7.556,14.285l-5.966,15.643l-3.11,11.312l-0.483,4.032l4.562,5.806l5.783,5.367l9.941,2.361l9.618,-4.689l2.88,-6.957l2.441,-8.179Z" style="fill:#f68d2f;fill-rule:nonzero;stroke:#f68d2f;stroke-width:1.16px;stroke-linejoin:round;"/></g></svg>