<?xml version="1.0" encoding="UTF-8" standalone="no"?><!DOCTYPE svg PUBLIC "-//W3C//DTD SVG 1.1//EN" "http://www.w3.org/Graphics/SVG/1.1/DTD/svg11.dtd"><svg width="100%" height="100%" viewBox="0 0 960 960" version="1.1" xmlns="http://www.w3.org/2000/svg" xmlns:xlink="http://www.w3.org/1999/xlink" xml:space="preserve" xmlns:serif="http://www.serif.com/" style="fill-rule:evenodd;clip-rule:evenodd;"><g id="Capa-1" serif:id="Capa 1"><path id="path3230-2-8" d="M959.652,479.826c0,265.001 -214.825,479.826 -479.826,479.826c-265.001,0 -479.826,-214.825 -479.826,-479.826c0,-265.001 214.825,-479.826 479.826,-479.826c265.001,0 479.826,214.825 479.826,479.826Z" style="fill:#28429d;"/><path id="path4134" d="M138.533,519.799l29.635,-13.929l-34.918,-28.332c4.675,-7.672 8.975,-15.343 15.531,-23.015c13.266,-15.618 23.981,-31.396 42.032,-46.716c14.607,-11.484 28.626,-23.537 46.294,-31.572c13.232,-6.79 27.807,-12.235 42.666,-17.398c21.169,-5.732 45.954,-11.325 75.665,-16.728c11.071,-3.384 23.148,-5.562 32.752,-10.706l18.278,-23.033c10.596,-8.864 20.364,-17.935 33.421,-26.184c11.45,-5.131 19.024,-11.258 41.205,-13.629c8.201,-1.634 16.198,-0.408 24.071,2.553c5.139,2.618 9.505,5.787 10.09,11.657c-1.011,7.102 -3.381,14.205 -7.677,21.307l-20.074,33.809c-2.106,4.809 -5.763,8.066 -6.111,14.633c17.304,5.361 34.608,10.348 51.911,17.591c16.452,4.976 29.279,11.966 42.948,18.489c16.166,6.233 26.571,12.467 38.052,18.7c18.527,10.689 33.504,21.378 49.234,32.066l18.86,16.059c8.382,-12.096 14.141,-21.732 33.104,-36.327c12.473,-8.432 24.017,-17.192 41.839,-23.736c14.253,-3.364 26.882,-7.843 46.064,-7.819c7.445,0.347 20.596,0.471 22.997,6.075l-20.179,16.306c-8.511,6.916 -17.022,17.061 -25.533,26.449c-9.608,14.767 -14.45,24.768 -17.856,33.333c-2.395,9.074 -5.649,18.149 -4.296,27.223c0.07,9.945 7.217,22.546 12.115,34.302l25.374,30.991l30.322,26.502c-5.339,8.623 -4.57,6.272 -18.471,13.171c-10.648,2.916 -21.295,2.504 -31.942,1.18l-26.414,-9.509c-10.122,-7.321 -22.119,-14.185 -28.209,-21.817l-25.251,-25.409l-14.21,-17.644c-5.505,8.306 -12.075,16.005 -19.881,22.997c-10.916,9.335 -22.5,17.002 -34.055,24.74l-27.17,14.052l-30.147,13.294c-22.798,9.353 -45.867,17.349 -68.991,25.075l-29.776,8.717c-0.539,6.174 2.517,10.551 7.219,14.104l21.008,15.179l16.922,14.932c-5.582,4.658 -13.59,6.485 -21.025,8.981c-6.674,1.741 -15.542,0.922 -24.106,0.458c-13.463,-3.977 -24.52,-9.717 -33.052,-17.31l-13.771,-12.907l-12.977,-16.992c-8.47,-3.689 -16.94,-5.789 -25.409,-7.185l-53.39,-6.286c-25.196,-1.802 -50.701,-5.455 -76.88,-13.154c-19.859,-7.644 -38.857,-17.009 -56.419,-29.248c-14.283,-12.311 -27.806,-24.447 -37.859,-35.781l-23.56,-32.559Z" style="fill:#c3ead8;fill-rule:nonzero;stroke:#c3ead8;stroke-width:1.16px;"/><path id="path4140" d="M310.026,449.386c-0,15.118 -12.256,27.373 -27.374,27.373c-15.118,0 -27.373,-12.255 -27.373,-27.373c-0,-15.118 12.255,-27.374 27.373,-27.374c15.118,0 27.374,12.256 27.374,27.374Z" style="fill:#28429d;fill-rule:nonzero;stroke:#28429d;stroke-width:1.64px;"/><path id="path4142" d="M334.534,609.631l15.949,-14.212l19.616,-24.394l13.983,-27.357c3.924,-8.305 7.452,-18.325 8.758,-28.593l2.404,-23.264c-0.14,-10.154 -0.277,-20.299 -2.347,-31.737c-1.914,-11.818 -4.856,-23.978 -9.727,-36.781l-13.679,-28.878l-16.415,-25.23l-4.863,-7.903l11.713,10.164l18.97,19.692l8.996,12.017l12.909,23.178l6.687,18.846l4.256,14.591l2.432,13.679l0.608,18.543l-1.215,17.934l-4.256,18.543l-4.949,16.129l-9.337,15.18l-7.904,10.64l-10.725,11.874l-16.889,12.852l-17.07,11.447l-7.905,3.04Z" style="fill:#28429d;fill-rule:nonzero;stroke:#28429d;stroke-width:1.16px;"/></g></svg>