<?xml version="1.0" encoding="UTF-8" standalone="no"?><!DOCTYPE svg PUBLIC "-//W3C//DTD SVG 1.1//EN" "http://www.w3.org/Graphics/SVG/1.1/DTD/svg11.dtd"><svg width="100%" height="100%" viewBox="0 0 3999 3999" version="1.1" xmlns="http://www.w3.org/2000/svg" xmlns:xlink="http://www.w3.org/1999/xlink" xml:space="preserve" xmlns:serif="http://www.serif.com/" style="fill-rule:evenodd;clip-rule:evenodd;stroke-linecap:round;stroke-linejoin:round;"><g id="Capa-1" serif:id="Capa 1"><path id="path3230" d="M3998.55,1999.28c0,1104.17 -895.108,1999.28 -1999.28,1999.28c-1104.17,0 -1999.28,-895.108 -1999.28,-1999.28c0,-1104.17 895.104,-1999.28 1999.28,-1999.28c1104.17,0 1999.28,895.104 1999.28,1999.28Z" style="fill:#f47039;"/><path id="path3243" d="M1338.34,3891.08l136.604,-221.492l140.887,-203.025l-30.512,-18.308l-24.413,-27.462l-24.408,-70.184l4.313,-97.646l56.712,-173.929l70.183,-134.262l67.134,-97.646l12.204,82.387l6.104,158.675l-4.5,119.005l-10.758,112.904l79.337,-85.442l97.646,-94.592l51.871,-51.875l-27.463,-42.72l-4.654,-51.505l10.758,-55.295l17.601,-41.638l40.375,-86.521l73.237,-100.696l45.771,-51.875l49.983,-54.991l60.413,-141.329l56.1,-162.905l-21.575,89.546l-33.446,111.117l-38.838,110.042l-20.495,152.116l-20.5,110.042l-23.734,85.229l186.638,-129.462l-20.496,-26.971l-7.554,-36.679l6.475,-57.18l35.6,-75.516l100.333,-117.596l90.621,-80.913l30.208,-22.654l71.204,-120.829l58.255,-118.671l-44.23,107.884l-42.075,84.15l-30.208,58.254l-29.129,127.304l-36.679,105.725l-40.996,92.779l196.346,-91.7l-20.496,-33.446l-3.238,-40.996l24.813,-61.491l32.367,-46.392l67.966,-69.042l65.809,-48.55l59.337,-37.758l12.946,-9.708l45.308,-60.417l47.471,-65.808l28.05,-40.996l23.733,-40.996l-38.837,74.438l-48.55,77.679l-43.15,64.729l-37.763,99.254l-38.837,89.542l-40.996,70.125l-30.204,40.996l108.262,-35.025l137.709,-39.417l15.487,-3.104l9.075,-1.213l1.333,-2.154l-11.42,-23.933c0.012,-3.367 -0.871,-7.263 -0.98,-10.321c-0.329,-9.208 0.175,-16.988 3.9,-29.333c9.209,-23.9 20.817,-41.963 42.075,-60.73c22.446,-19.687 44.359,-40.97 68.73,-54.891l51.137,-32.496l14.475,-8.629l43.534,-54.771l23.733,-31.288l18.341,-26.97l-36.679,58.258l-46.391,64.729l-12.946,17.263l-29.575,59.333l-22.788,44.867l-30.708,48.995l-33.967,34.85l60.175,-12.445l74.188,-12.25l68.862,-8.563l101.213,-11.3l-92.779,14.021c-69.217,6.929 -132.805,24.167 -196.03,42.075l69.042,18.342l59.338,25.891l31.287,12.946l61.492,9.708l86.308,20.5l-97.096,-18.341l-48.546,-3.238l-60.416,11.871l-90.621,9.708l-59.338,-6.475l-31.287,-14.025l-22.654,-24.812l-4.317,-10.788c-50.529,8.955 -98.387,29.917 -147.037,47.338l-107.567,46.521l38.837,5.396l92.78,19.416l59.337,19.421l88.467,29.129l37.758,3.234l87.383,11.866l71.205,14.025l53.941,14.025l-92.779,-15.1l-104.646,-10.792l-56.1,-1.079l-60.416,22.659l-94.938,20.495l-99.25,11.867l-65.812,-4.312l-43.15,-12.946l-33.446,-24.813l-21.575,-31.287l-90.625,48.546l-89.542,56.1l69.046,1.079l100.329,15.104l88.467,16.183l76.596,19.417l64.733,-2.158l61.492,1.079l77.675,6.475l38.837,2.158l37.763,5.392l-112.2,-3.234l-178.009,10.788l-57.179,21.575l-51.783,22.658l-118.671,35.6l-88.467,11.867l-61.491,-3.238l-40.996,-9.708l-29.129,-18.342l-24.813,-26.97c-66.546,24.6 -105.117,74.062 -146.721,120.829l70.121,-5.392l76.6,-1.079l73.358,3.237l75.521,6.471l42.075,8.634l55.021,-8.634l64.729,-7.55l65.809,-6.475l57.179,-4.312l83.071,-1.079l-85.23,8.629l-131.616,18.341l-93.859,20.5l-80.912,49.625l-102.492,50.705l-78.754,31.287l-81.992,22.654l-80.912,4.317l-43.154,-9.708l-28.05,-11.871l-17.263,-12.946c-67.154,54.754 -115.55,128.267 -169.375,196.35l69.046,-17.263l87.383,-17.262l81.992,-11.867l60.417,-6.471l55.021,-5.395l49.625,-17.263l77.675,-26.971l76.6,-21.575l72.283,-18.341l63.65,-15.105l-83.071,26.971l-85.229,28.05l-88.463,34.525l-71.204,31.288l-22.654,11.866l-106.808,91.7l-79.834,62.571l-94.937,55.021l-66.888,31.288l-48.545,11.866l-50.705,4.317l-29.129,-5.396l-21.579,-7.55c-73.4,92.267 -118.654,190.167 -163.983,288.05l-121.979,-36.679Z" style="fill:#fff;fill-rule:nonzero;stroke:#fff;stroke-width:4.83px;"/><path id="path4021" d="M827.808,3642.78l102.984,64.846l35.091,-188.425l46.538,-197.579l54.162,-217.413l16.017,6.1l42.721,12.971l54.162,0.763l37.38,-6.863l38.141,-12.971l33.567,-18.308l48.058,-28.988l56.454,-47.295l51.871,-53.4l50.35,-55.688l35.092,-48.062l36.617,-51.109l53.4,-83.154l55.687,-92.304l32.042,-58.738l22.883,-45.008l141.892,-128.162l87.729,-70.18l100.696,-78.575l57.975,-41.195l-45.771,28.229l-80.1,52.633l-106.8,72.471l-86.963,67.896l-55.687,43.483l-22.125,21.358l-18.308,12.971l-13.73,13.729l-89.254,40.434l-83.154,40.429l-83.912,42.721l-77.046,42.721l-81.625,51.108l-61.029,40.433l-68.659,55.688l103.75,-308.192l8.392,-0l40.429,16.017l30.513,4.579l67.133,-6.867l64.079,-26.7l57.975,-38.904l56.454,-48.821l69.417,-77.812l91.542,-127.396l80.1,-128.159l32.804,-62.554l130.446,-120.529l73.237,-61.029l70.179,-55.688l67.134,-49.587l25.175,-17.546l-52.638,32.804l-93.071,61.03l-69.416,48.82l-73.996,53.4l-63.317,51.875l-30.517,25.934l-95.354,41.958l-91.546,43.483l-67.891,35.855l-54.163,29.75l-93.066,57.216l-74.763,54.163l-1.525,-8.392l101.458,-234.196l36.617,16.784l51.875,8.387l73.996,-16.779l54.162,-25.938l45.009,-34.329l45.008,-40.433l50.35,-51.871l52.638,-67.133l48.058,-65.604l46.533,-69.421l45.009,-76.284l81.625,-70.945l74.762,-58.738l61.025,-45.008l39.671,-27.467l35.854,-22.121l44.246,-30.512l-49.588,28.225l-55.687,33.562l-55.688,34.329l-64.841,40.434l-73.238,54.162l-55.687,40.429l-137.313,55.688l-99.933,45.771l-99.171,52.637l-83.912,54.925l137.312,-262.421l20.596,16.784l35.854,13.733l36.617,3.05l41.958,-6.867l51.113,-23.645l62.55,-44.246l82.391,-89.254l73.234,-104.513l46.533,-77.808l35.854,-62.554l58.738,-54.925l72.47,-59.505l49.588,-38.141l41.192,-31.275l56.454,-38.146l-50.35,30.517l-57.213,34.329l-49.587,34.325l-73.234,51.875l-46.533,36.616l-26.7,22.125l-86.967,38.142l-83.15,38.904l-90.016,51.113l-56.45,35.854l-28.988,21.358l145.704,-226.566l14.492,12.966l27.467,17.546l40.429,5.342l41.958,-5.342l45.771,-17.546l66.367,-45.771l64.841,-62.554l37.38,-43.479l62.554,-82.392l35.854,-55.687l6.867,-8.392l39.666,-33.562l61.792,-43.484l55.687,-38.141l42.721,-27.463l35.854,-24.412l23.65,-13.734l-35.091,16.784l-55.688,27.462l-48.062,26.7l-48.821,30.517l-35.092,24.408l-22.883,15.259l-30.517,20.595l-65.604,22.888l-82.387,32.804l-73.234,35.088l-60.266,32.041l-40.434,25.175l204.446,-270.812l28.225,-32.804l-53.4,31.279l-193,227.329l1.525,-95.358l-16.021,-91.542l-22.121,-83.15l-20.595,-71.708l-32.805,-87.73l-9.916,-105.27l-6.867,-60.267l-16.021,-84.679l-12.966,-61.788l6.866,54.163l8.392,70.179l4.575,76.287l4.579,104.509l-21.362,57.216l-15.255,72.471l-19.837,96.117l-8.388,74.762l1.525,80.863l17.546,64.842l25.938,42.72l28.225,25.171l25.175,10.684l11.441,4.575l-202.158,285.308l-6.1,-95.358l-19.071,-83.15l-19.837,-72.471l-28.225,-73.996l-31.275,-78.575l-25.938,-59.504l-12.971,-25.171l-15.254,-93.071l-15.258,-72.471l-14.496,-64.841l-14.492,-57.213l-20.595,-65.604l15.254,64.842l14.496,82.387l14.491,96.883l8.392,103.746l1.529,16.021l-19.075,85.438l-13.729,75.525l-12.204,101.458l-0,131.975l9.916,61.025l23.646,64.079l37.379,48.063l26.7,14.491l19.071,10.684l13.734,3.05l9.916,1.525l-168.591,288.358l-6.1,-70.183l-13.734,-67.892l-24.408,-94.596l-27.463,-87.725l-28.229,-77.05l-23.646,-61.029l-19.833,-47.296l-12.971,-110.612l-13.729,-78.575l-14.496,-73.996l-18.308,-79.338l-21.358,-80.862l12.966,73.233l15.259,93.833l8.391,82.388l7.625,91.542l4.579,63.316l-21.358,77.813l-21.362,91.541l-13.73,73.996l-12.208,105.275l-3.05,80.863l7.629,80.096l16.021,63.316l32.8,61.029l30.517,32.042l28.987,17.546l21.359,8.387l19.07,6.105l-115.191,235.72l-34.325,-136.55l-47.3,-132.737l-33.563,-83.15l-35.091,-80.1l-16.784,-36.617l-6.866,-13.729l-16.021,-92.308l-28.225,-132.734l-15.254,-64.079l-13.734,-53.4l-12.966,-44.246l-12.971,-42.72l-8.392,-29.75l16.783,74.758l22.888,105.275l16.017,98.408l10.683,77.809l9.917,89.254l-16.784,67.133l-18.308,96.879l-16.783,100.696l-9.917,112.904l-0,118.242l10.679,79.337l25.938,90.78l23.65,41.191l26.7,32.804l25.17,19.834l19.834,12.208l13.733,6.863l-82.387,210.55l-22.125,-94.596l-34.325,-109.85l-33.567,-91.542l-35.854,-90.779l-48.821,-105.275l-28.229,-59.5l-14.492,-80.1l-19.833,-91.542l-16.021,-69.421l-23.65,-88.491l-28.988,-97.646l-22.887,-70.946l20.6,77.813l27.462,123.583l22.884,123.579l16.021,123.583l6.104,52.638l-20.596,99.933l-18.313,96.121l-16.779,125.871l-7.629,132.733l4.575,90.779l6.867,66.371l18.308,77.046l29.75,68.658l31.279,43.484l42.721,38.141l41.192,16.021l16.783,6.1l-56.45,191.475l-53.4,185.375l-48.062,198.342l-41.955,181.554Z" style="fill:#fff;fill-rule:nonzero;stroke:#fff;stroke-width:4.83px;"/></g></svg>