<?xml version="1.0" encoding="UTF-8" standalone="no"?><!DOCTYPE svg PUBLIC "-//W3C//DTD SVG 1.1//EN" "http://www.w3.org/Graphics/SVG/1.1/DTD/svg11.dtd"><svg width="100%" height="100%" viewBox="0 0 960 960" version="1.1" xmlns="http://www.w3.org/2000/svg" xmlns:xlink="http://www.w3.org/1999/xlink" xml:space="preserve" xmlns:serif="http://www.serif.com/" style="fill-rule:evenodd;clip-rule:evenodd;stroke-linecap:round;stroke-linejoin:round;"><g id="Capa-1" serif:id="Capa 1"><path id="path3230-2-76" d="M959.652,479.826c0,265.001 -214.825,479.826 -479.826,479.826c-265.001,0 -479.826,-214.825 -479.826,-479.826c0,-265.001 214.825,-479.826 479.826,-479.826c265.001,0 479.826,214.825 479.826,479.826Z" style="fill:#fadd3d;"/><path id="path4033" d="M504.977,268.185l13.239,-29.454l14.76,-26.397l20.828,-23.668l15.147,-15.148l26.508,-18.934l22.722,-10.414c9.468,-1.583 19.961,-5.088 29.081,-5.278l17.983,-0.543l27.45,3.661l30.164,10.283l18.924,10.69c12.994,8.104 21.365,15.284 30.98,22.712l23.527,25.823l14.468,22.047c8.542,17.356 15.549,34.713 20.828,52.069l4.341,30.839l-2.291,32.466l-11.915,37.184l-17.443,31.645l-25.839,29.076l-31.096,21.251c-13.378,8.221 -26.359,11.999 -44.903,17.162c-16.842,2.46 -34.541,1.691 -52.07,2.432l-38.816,-6.486c-14.638,-4.118 -28.246,-9.438 -40.709,-16.094c-15.083,-8.564 -27.931,-18.617 -39.762,-29.349c-8.133,-7.847 -13.013,-16.158 -18.784,-24.343c-7.326,-11.965 -10.808,-25.768 -16.104,-39.087c-3.09,-14.516 -4.463,-29.033 -3.928,-43.549l4.472,-29.887c2.07,-9.393 4.718,-19.505 8.238,-30.708l0,-0.001Z" style="fill:#fff;fill-rule:nonzero;stroke:#fff;stroke-width:1.16px;"/><path id="path4035" d="M531.441,324.604c2.487,9.515 3.948,20.057 8.162,27.845l13.254,21.774l17.041,17.041l19.881,14.201l19.881,9.467l25.562,7.574l17.041,1.894l26.508,3.786l32.089,-4.405l23.767,-7.902l20.828,-14.201l22.722,-21.774l11.36,-20.828l9.468,-19.881l-2.352,18.934l-3.329,15.148l-6.627,17.041l-12.307,18.934c-6.759,8.889 -14.06,16.692 -21.775,23.668l-13.254,9.467l-25.562,13.254l-17.17,4.116l-18.805,2.511l-26.508,1.795l-32.189,-7.475l-26.409,-7.833l-25.432,-15.705c-6.275,-5.609 -11.944,-12.515 -19.163,-20.011c-7.555,-8.836 -11.161,-17.672 -16.094,-26.508c-2.944,-9.1 -3.601,-19.344 -4.734,-29.349l0,-14.2l4.146,-18.378Z" style="fill:#fadd3d;fill-rule:nonzero;stroke:#fadd3d;stroke-width:1.16px;"/><path id="path4037" d="M701.492,167.838l17.041,-3.787l2.84,-0.947c1.092,-0.801 0.813,-2.973 0,-5.68l-13.254,-4.734l-28.401,-2.84l-16.095,0l-13.254,2.84l-2.84,3.787c4.179,4.956 9.434,5.338 13.254,8.032l18.576,2.611l22.133,0.718Z" style="fill:#fadd3d;fill-rule:nonzero;stroke:#fadd3d;stroke-width:1.16px;"/><path id="path4033-7" d="M126.779,446.178l8.194,-31.236l10.198,-28.472l16.633,-26.782l12.438,-17.441l23.018,-23.052l20.689,-14.023c9.077,-3.125 18.848,-8.315 27.811,-10.008l17.646,-3.506l27.678,-0.922l31.448,5.161l20.43,7.419c14.153,5.847 23.595,11.545 34.305,17.284l27.468,21.583l17.91,19.355c11.291,15.708 21.068,31.669 29.141,47.915l9.374,29.699l3.101,32.398l-5.61,38.641l-11.979,34.091l-20.682,32.944l-27.16,26.094c-11.837,10.317 -24.016,16.188 -41.453,24.342c-16.205,5.207 -33.787,7.372 -50.953,10.997l-39.354,0.013c-15.117,-1.645 -29.417,-4.644 -42.808,-9.151c-16.29,-5.955 -30.622,-13.748 -44.063,-22.379c-9.317,-6.396 -15.502,-13.788 -22.545,-20.907c-9.202,-10.591 -14.915,-23.63 -22.338,-35.892c-5.445,-13.806 -9.196,-27.897 -11.066,-42.302l-0.525,-30.216c0.491,-9.605 1.433,-20.016 3.055,-31.646l-0.001,-0.001Z" style="fill:#fff;fill-rule:nonzero;stroke:#fff;stroke-width:1.16px;"/><path id="path4035-7" d="M162.197,497.453c4.024,8.973 7.205,19.129 12.647,26.114l16.668,19.287l19.621,13.993l21.954,10.723l21.171,6.054l26.462,3.249l17.119,-0.947l26.77,-0.643l30.921,-9.643l22.136,-11.719l18.197,-17.445l18.814,-25.228l7.765,-22.418l6.054,-21.171l0.808,19.062l-0.782,15.49l-3.722,17.901l-9.012,20.707c-5.198,9.883 -11.11,18.785 -17.567,26.939l-11.509,11.526l-23.022,17.293l-16.255,6.894l-18.132,5.583l-25.848,6.147l-32.981,-2.056l-27.34,-3.365l-27.676,-11.29c-7.116,-4.496 -13.847,-10.371 -22.205,-16.572c-8.91,-7.467 -13.926,-15.586 -20.251,-23.486c-4.405,-8.489 -6.745,-18.483 -9.514,-28.164l-2.345,-14.006l1.054,-18.809Z" style="fill:#fadd3d;fill-rule:nonzero;stroke:#fadd3d;stroke-width:1.16px;"/><path id="path4037-1" d="M304.025,314.757l16.182,-6.549l2.645,-1.402c0.945,-0.971 0.311,-3.067 -0.938,-5.603l-13.854,-2.48l-28.48,1.889l-15.874,2.658l-12.603,4.99l-2.176,4.204c4.94,4.198 10.186,3.706 14.399,5.733l18.752,-0.493l21.947,-2.947Z" style="fill:#fadd3d;fill-rule:nonzero;stroke:#fadd3d;stroke-width:1.16px;"/><path id="path4033-2" d="M742.205,593.877l10.415,18.527l6.099,31.222l-2.509,27.91l-13.656,34.408l-9.53,17.353l-7.505,12.857c-4.27,8.598 -6.635,9.176 -11.829,16.675l-13.891,14.885l-16.731,14.554l-13.491,10.83l-15.096,9.352c-14.184,5.773 -11.508,6.888 -23.163,10.321l-21.022,5.371l-27.507,3.162c-19.069,-3.259 -23.836,-3.682 -40.992,-9.583l-30.439,-19.52l-16.798,-15.649l-19.638,-25.92l-11.326,-24.238l-9.858,-32.154l-0.289,-35.1c1.185,-15.657 1.794,-26.859 8.496,-44.908c7.883,-15.085 13.202,-28.97 22.881,-43.604l27.068,-33.32c11.92,-9.443 24.209,-13.559 36.908,-19.751c15.781,-7.196 27.672,-5.081 43.302,-8.372c11.125,-1.987 22.613,1.775 32.626,1.898c13.989,1.083 30.052,12.984 43.946,16.504c13.571,6.009 16.667,10.568 28.111,19.515l20.641,15.466c6.394,7.185 17.767,21.887 24.778,31.308l-0.001,0.001Z" style="fill:#fff;fill-rule:nonzero;stroke:#fff;stroke-width:1.16px;"/><path id="path4035-2" d="M585.663,547.136l-7.235,5.436l-7.344,6.419l-8.062,7.599l-6.843,6.321l-8.545,8.221l-7.429,9.272l-7.738,9.488l-15.989,24.788l-11.337,27.647l-5.619,29.769l-0.186,25.453c0.592,9.841 3.295,20.285 6.218,30.792l8.687,22.177l10.553,19.2l-14.847,-13.515l-10.318,-11.579l-10.679,-15.361l-9.897,-21.326c-3.237,-10.686 -6.819,-21.214 -7.946,-31.554l-0.49,-15.996l2.796,-29.061l5.57,-22.149l8.7,-17.871l14.091,-23.399c5.529,-8.479 12.892,-16.224 22.307,-23.148c5.241,-7.52 15.982,-10.639 24.744,-15.342c6.734,-3.497 15.855,-5.561 26.469,-6.729c8.224,-1.795 -0.925,0.286 9.381,-1.167c11.588,-0.938 10.37,-1.301 20.42,-0.116c10.101,2.893 -7.038,2.259 -9.001,7.839l-5.689,4.83l-4.742,3.062Z" style="fill:#fadd3d;fill-rule:nonzero;stroke:#fadd3d;stroke-width:1.16px;"/><path id="path4037-2" d="M679.797,755.067l-6.925,16.024l-0.899,2.856c0.009,1.355 1.931,2.402 4.601,3.331c4.16,0.374 8.321,-3.44 12.481,-5.921c16.307,-19.475 11.681,-10.076 20.411,-23.963l7.107,-12.455l5.471,-12.401l-1.401,-4.521c-6.465,-3.041 -9.855,3.747 -14.278,6.026l-13.008,13.516l-13.56,17.508Z" style="fill:#fadd3d;fill-rule:nonzero;stroke:#fadd3d;stroke-width:1.16px;"/></g></svg>