<?xml version="1.0" encoding="UTF-8" standalone="no"?><!DOCTYPE svg PUBLIC "-//W3C//DTD SVG 1.1//EN" "http://www.w3.org/Graphics/SVG/1.1/DTD/svg11.dtd"><svg width="100%" height="100%" viewBox="0 0 960 960" version="1.1" xmlns="http://www.w3.org/2000/svg" xmlns:xlink="http://www.w3.org/1999/xlink" xml:space="preserve" xmlns:serif="http://www.serif.com/" style="fill-rule:evenodd;clip-rule:evenodd;stroke-linecap:round;stroke-linejoin:round;"><g id="Capa-1" serif:id="Capa 1"><path id="path3230-0-5" d="M959.647,479.823c-0,264.999 -214.825,479.824 -479.824,479.824c-264.999,-0 -479.823,-214.825 -479.823,-479.824c0,-264.999 214.824,-479.823 479.823,-479.823c264.999,0 479.824,214.824 479.824,479.823Z" style="fill:#6d351e;"/><path id="path4240" d="M530.288,203.17l49.376,-16.701l36.307,-9.439l23.236,0.726l17.426,5.809l14.523,13.796l1.452,16.701l-2.904,11.618l-12.344,10.166l-21.058,10.891l-15.249,9.44l-8.713,11.618l-5.809,24.688l-4.357,20.332l4.357,31.223l15.975,21.058l21.783,30.497l23.962,51.555l10.166,33.401l9.44,58.817l2.904,41.389l-2.177,39.936l-7.987,43.568l-13.07,31.223l-15.249,26.141l-17.427,28.319l-16.701,16.7l-20.331,11.618l-37.033,4.357l-100.205,-1.452l-31.949,-2.905l-15.249,-3.63l-12.344,-7.988l-15.975,-17.427l-34.128,-50.828l-13.07,-36.307l-8.713,-32.675l-1.453,-32.676l0.728,-13.796l-10.892,-15.975l-15.975,-29.045l-14.522,-29.771l-13.071,-45.02l-5.082,-25.414l3.63,-36.306l6.535,-35.58l13.797,-29.045l26.866,-29.771l27.593,-15.249l29.771,-10.166l-12.344,-24.688l-3.631,-18.153l2.905,-12.344l15.975,-11.618l31.949,-9.44l34.128,-5.082l51.555,-0l15.248,2.178l-2.904,1.452l-13.071,3.631l-17.426,-0l-21.058,1.452l-29.771,2.905l-22.51,7.261l-13.07,7.261l3.63,7.261l14.523,3.631l21.784,2.904l9.439,-0.726l20.332,-7.261l34.127,-14.522l24.689,-10.892l8.711,-3.631Z" style="fill:#fff;fill-rule:nonzero;stroke:#fff;stroke-width:1.16px;"/><path id="path4253" d="M330.242,525.206l5.446,-34.128l11.255,-38.484l13.796,-35.217l12.344,-22.873l10.529,-15.975l3.267,-5.809l4.72,-13.433l1.09,-22.147l-2.541,-15.249l-3.268,-3.993l-5.083,-2.542l-3.993,1.452l-21.058,11.618l-14.886,10.892l-20.694,21.421l-10.892,18.516l-7.624,23.236l-2.178,24.325l2.542,23.962l4.357,22.147l6.898,20.332l7.261,15.248l8.712,16.701Z" style="fill:#6d351e;fill-rule:nonzero;stroke:#6d351e;stroke-width:1.16px;stroke-linecap:butt;"/><path id="path4255" d="M423.549,284.496l9.802,-3.268l10.892,-0.363l6.535,1.452l3.631,7.625l1.452,11.618l0,22.873l-0.727,20.694l-3.268,20.332l-6.535,15.974l-3.993,7.988l-5.809,11.618l-6.898,11.255l-10.892,17.79l-7.262,17.064l-12.344,27.592l-8.713,25.415l-5.809,14.159l-4.72,11.618l-4.72,2.542l-3.994,-0.727l-2.541,-1.815l-1.452,-7.261l6.535,-34.854l8.713,-25.778l12.345,-33.401l12.707,-23.599l10.529,-20.332l7.261,-16.338l2.177,-13.433l-3.631,-29.771l-1.814,-21.058l-0.362,-8.35l2.905,-7.261Z" style="fill:#6d351e;fill-rule:nonzero;stroke:#6d351e;stroke-width:1.16px;"/></g></svg>