<?xml version="1.0" encoding="UTF-8" standalone="no"?><!DOCTYPE svg PUBLIC "-//W3C//DTD SVG 1.1//EN" "http://www.w3.org/Graphics/SVG/1.1/DTD/svg11.dtd"><svg width="100%" height="100%" viewBox="0 0 960 960" version="1.1" xmlns="http://www.w3.org/2000/svg" xmlns:xlink="http://www.w3.org/1999/xlink" xml:space="preserve" xmlns:serif="http://www.serif.com/" style="fill-rule:evenodd;clip-rule:evenodd;stroke-linecap:round;stroke-linejoin:round;"><g id="Capa-1" serif:id="Capa 1"><path id="path3230-2-1" d="M959.652,479.826c0,265.001 -214.825,479.826 -479.826,479.826c-265.001,0 -479.826,-214.825 -479.826,-479.826c0,-265.001 214.825,-479.826 479.826,-479.826c265.001,0 479.826,214.825 479.826,479.826Z" style="fill:#4dc4d5;"/><path id="path3192" d="M401.92,176.716l-24.688,3.631c-12.525,3.087 -23.088,8.462 -29.446,15.249l-22.109,18.153l-18.879,16.701l-24.037,11.217l-23.888,5.484l-29.771,7.261l-23.962,22.51l-14.522,27.592l-15.249,31.224c-3.643,5.145 -11.674,9.559 -22.722,13.47c-8.936,5.094 -10.759,6.02 -21.96,16.838c-6.051,7.433 -10.458,16.51 -10.366,30.086l2.168,23.573l4.569,17.49c-4.458,6.028 -0.879,16.878 0.388,26.341c2.219,16.058 5.687,31.181 12.819,43.555c9.299,18.529 26.368,37.057 41.44,55.586l48.65,46.684l56.112,47.324l42.841,29.771l-7.261,16.701l-16.701,25.414c-4.113,6.777 -6.622,13.554 -5.809,20.331c0.493,14.85 6.501,21.978 13.07,28.319c13.555,4.154 27.109,7.053 40.663,5.083l268.666,0l22.51,-8.713c7.016,-3.103 12.206,-8.396 13.07,-18.88c1.062,-7.372 0.465,-14.193 -2.177,-20.331c0.093,-17.301 -18.395,-31.95 -27.593,-47.924c20.953,-12.313 42.904,-23.091 60.206,-42.704l63.962,-56.049l44.293,-44.294l20.332,-31.223l10.892,-26.141l5.208,-24.751l0.6,-15.912l-0,-7.261l0.927,-18.016c1.935,-3.903 2.946,-17.313 4.883,-24.825c1.559,-8.714 -3.604,-17.427 -7.988,-26.141l-8.715,-12.344l-20.583,-9.302l-18.628,-11.755l-6.661,-12.207c1.46,-6.896 -8.488,-18.266 -11.492,-26.278c-3.217,-8.562 -13.384,-21.294 -22.51,-33.402l-15.237,-10.366l-31.235,-9.965l-23.962,-5.809l-27.593,-13.07l-23.962,-21.784c-4.214,-6.777 -19.73,-13.554 -31.949,-20.332l-16.701,-5.809l-27.593,0l-39.21,9.44l-16.701,1.452l-27.73,-0.137l-29.634,-7.124l-29.045,-3.631Z" style="fill:#f9f9f9;fill-rule:nonzero;stroke:#f9f9f9;stroke-width:1.16px;"/><path id="path3964" d="M225.343,363.841l-4.913,4.912l-5.24,5.568l-4.257,3.602l-5.24,3.93l-6.223,3.275l-5.567,2.948l180.778,183.397l-149.338,-207.632Z" style="fill:#4dc4d5;fill-rule:nonzero;stroke:#4dc4d5;stroke-width:1.16px;"/><path id="path3966" d="M353.066,262.645l-5.24,4.257l-4.912,4.257l-5.24,3.275l-4.913,2.948l-1.638,0.327l-3.275,1.31l-5.895,3.93l-5.567,1.31l114.624,275.752l-77.944,-297.366Z" style="fill:#4dc4d5;fill-rule:nonzero;stroke:#4dc4d5;stroke-width:1.16px;"/><path id="path3968" d="M472.275,233.497l6.55,1.965l4.584,0.328l3.603,-0l6.222,-0.328l5.895,0.328l6.223,-0.328l3.275,-0.327l4.257,-0.982l1.638,-0l-21.942,334.701l-20.305,-335.357Z" style="fill:#4dc4d5;fill-rule:nonzero;stroke:#4dc4d5;stroke-width:1.16px;"/><path id="path3970" d="M633.075,262.645l5.895,4.912l4.585,3.93l5.568,3.275l5.24,1.965l1.31,0.655l3.602,3.275l4.585,1.965l5.895,2.62l-115.278,276.079l78.598,-298.676Z" style="fill:#4dc4d5;fill-rule:nonzero;stroke:#4dc4d5;stroke-width:1.16px;"/><path id="path3972" d="M761.454,363.513l4.585,4.913l4.257,5.567l6.877,5.24l7.533,4.585l7.532,3.93l-182.087,185.363l151.303,-209.598Z" style="fill:#4dc4d5;fill-rule:nonzero;stroke:#4dc4d5;stroke-width:1.16px;"/></g></svg>