<?xml version="1.0" encoding="UTF-8" standalone="no"?><!DOCTYPE svg PUBLIC "-//W3C//DTD SVG 1.1//EN" "http://www.w3.org/Graphics/SVG/1.1/DTD/svg11.dtd"><svg width="100%" height="100%" viewBox="0 0 960 960" version="1.1" xmlns="http://www.w3.org/2000/svg" xmlns:xlink="http://www.w3.org/1999/xlink" xml:space="preserve" xmlns:serif="http://www.serif.com/" style="fill-rule:evenodd;clip-rule:evenodd;stroke-linecap:round;stroke-linejoin:round;"><g id="Capa-1" serif:id="Capa 1"><path id="path3230-0-5-2" d="M954.526,479.823c-0,262.171 -212.532,474.703 -474.703,474.703c-262.171,-0 -474.702,-212.532 -474.702,-474.703c-0,-262.171 212.531,-474.702 474.702,-474.702c262.171,-0 474.703,212.531 474.703,474.702Z" style="fill:#c09328;fill-rule:nonzero;"/><path id="path4377" d="M419.998,214.041l175.701,175.702l224.172,-226.191l-42.411,-42.41l-55.538,-42.411l-48.469,-28.274l-33.323,-16.156l-32.313,-8.079l-187.819,187.819Z" style="fill-opacity:0;fill-rule:nonzero;stroke:#000;stroke-opacity:0;stroke-width:1.14px;"/><path id="path4361" d="M752.559,744.612c-2.617,-6.664 -4.008,-13.975 -7.854,-19.903l-11.424,-10.8l-19.279,-12.852l-23.563,-9.282l-33.559,-9.283l-27.847,-4.998l-37.129,-2.856l-22.848,1.428l-27.847,9.996l-31.417,11.425l-24.277,4.284l-38.557,0.714l-29.275,-3.57l-30.703,-4.998l-29.989,-4.284l-26.419,-2.143l-31.417,-3.57l-30.703,1.428l-2.856,-8.568l-4.284,-19.278l2.141,-14.281l3.57,-4.998l21.421,-13.566l19.992,-18.565l9.283,-13.566l0.715,-18.565l-1.428,-17.851l-2.856,-12.852l-4.284,-11.424l-0,-11.425l7.854,-7.854l12.852,-4.998l12.853,-7.14l9.996,-9.997l8.568,-13.566l4.284,-14.28l4.999,-9.283l-1.429,-7.854l-9.996,-9.282l-9.282,-0l-7.14,4.284l-5.713,12.138l-4.998,13.567l-5.712,9.282l-13.566,6.426l-15.709,6.426l-10.71,11.425l-7.14,14.28l-0.715,14.995l4.284,17.85l3.57,17.851l2.856,13.566l-2.856,7.854l-12.853,9.997l-10.71,8.568l-12.138,8.568l-8.569,7.14l-7.14,12.853l-4.284,19.278l1.428,20.707l2.856,11.424l2.141,10.711l-16.422,6.426l-16.423,12.852l-8.568,12.853l-4.284,17.85l4.998,19.279l16.422,18.564l24.991,22.849l24.277,13.567l30.703,11.424l29.275,6.426l46.411,4.998l49.982,2.856l57.835,4.999l51.41,-1.429l49.982,-4.284l39.271,-7.14l36.415,-9.996l37.843,-16.423l28.561,-16.422l20.707,-19.279l9.996,-15.708l1.517,-14.638" style="fill:#fff;fill-rule:nonzero;stroke:#fff;stroke-width:1.14px;"/><path id="path4363" d="M609.331,802.49l19.186,-3.534l14.642,-4.039l18.934,-7.826l12.622,-6.816l9.593,-5.806l7.825,-5.806l8.836,-7.826l6.563,-9.088l5.302,-10.855l2.02,-8.836l0.253,-6.058l-0.253,-2.525l3.786,5.049l2.777,6.816l1.01,5.554l-0.756,6.563l-1.261,5.049l-2.525,5.049l-3.786,5.807l-4.04,4.796l-7.321,5.554l-7.573,6.058l-8.078,5.302l-10.603,6.816l-6.563,3.786l-7.321,3.282l-8.079,2.525l-8.078,2.777l-7.573,0.757l-8.583,0.505l-8.583,-0.757l-5.554,-0.505l-6.819,-1.768Z" style="fill:#c09328;fill-rule:nonzero;stroke:#c09328;stroke-width:1.14px;"/><path id="path4369" d="M389.2,411.958l56.547,-85.831l-44.43,-42.916l30.293,-30.293l125.718,125.213l-30.293,30.293l-44.431,-43.925l-82.297,57.052l-11.107,-9.593Z" style="fill:#fefefe;fill-rule:nonzero;stroke:#fefefe;stroke-width:1.14px;"/><path id="path4406" d="M421.008,213.031l177.721,177.722l229.838,-232.989c-16.364,-21.797 -35.669,-38.367 -60.065,-54.809c-8.016,-8.863 -24.325,-18.302 -41.479,-28.47c-13.513,-15.638 -34.856,-20.111 -61.144,-27.7c-6.596,-8.088 -32.826,-13.806 -58.062,-20.563l-186.809,186.809Z" style="fill:#fff;fill-rule:nonzero;stroke:#fff;stroke-width:1.14px;"/><path d="M959.647,479.823c-0,264.999 -214.825,479.824 -479.824,479.824c-264.999,-0 -479.823,-214.825 -479.823,-479.824c0,-264.999 214.824,-479.823 479.823,-479.823c264.999,0 479.824,214.824 479.824,479.823Zm-10.242,0c-0,-259.342 -210.239,-469.581 -469.582,-469.581c-259.342,-0 -469.581,210.239 -469.581,469.581c-0,259.343 210.239,469.582 469.581,469.582c259.343,-0 469.582,-210.239 469.582,-469.582Z" style="fill:#c09328;"/></g></svg>