<?xml version="1.0" encoding="UTF-8" standalone="no"?><!DOCTYPE svg PUBLIC "-//W3C//DTD SVG 1.1//EN" "http://www.w3.org/Graphics/SVG/1.1/DTD/svg11.dtd"><svg width="100%" height="100%" viewBox="0 0 960 960" version="1.1" xmlns="http://www.w3.org/2000/svg" xmlns:xlink="http://www.w3.org/1999/xlink" xml:space="preserve" xmlns:serif="http://www.serif.com/" style="fill-rule:evenodd;clip-rule:evenodd;stroke-linecap:round;stroke-linejoin:round;"><g id="Capa-1" serif:id="Capa 1"><path id="path3230-0" d="M959.652,479.826c0,265.001 -214.825,479.826 -479.826,479.826c-265.001,0 -479.826,-214.825 -479.826,-479.826c0,-265.001 214.825,-479.826 479.826,-479.826c265.001,0 479.826,214.825 479.826,479.826Z" style="fill:#c27344;"/><path id="path4108" d="M631.326,487.726l10.521,-22.887l13.373,-19.676l12.816,-12.45l13.548,-10.619l16.478,-8.422l21.97,-6.591l21.604,-4.394l16.112,-2.197l15.379,-1.098l17.942,1.83l10.985,3.296l6.957,4.76l6.225,5.859l4.028,5.859l2.196,9.52l0.367,9.52l-0.915,3.845l-113.238,64.354l116.625,-58.221l3.204,3.388l3.844,3.57l4.669,6.133l3.295,6.225l1.831,4.852l1.281,5.767l0.548,5.95l-1.28,8.33l-1.648,5.768l-2.837,6.682l-3.571,6.317l-4.485,6.682l-4.028,5.218l-7.049,7.69l-4.851,4.394l-9.979,8.605l-9.062,6.865l-15.013,9.612l-13.274,7.507l-11.443,5.767l-13.639,5.95l-15.654,5.401l-11.992,2.746l-5.95,0.55l-5.768,0.366l-7.414,-0.549l-5.676,-0.824l-6.042,-1.373l-5.218,-1.831l-4.394,-1.831l-9.795,-5.676l-5.767,-4.302l-6.957,-6.408l-4.577,-5.309l-5.584,-6.958l-5.859,-9.52l-3.296,-6.316l-1.74,-4.486l-1.373,-5.218l-0.642,-4.669l-0.641,-7.14l0.274,-7.232l0.825,-8.513l2.105,-8.703l1.649,-5.765Z" style="fill:#fff;fill-rule:nonzero;stroke:#fff;stroke-width:1.16px;"/><path id="path4108-5" d="M543.842,796.177l-23.1,-15.419l-13.194,-20.444l-6.967,-16.942l-5.751,-17.277l-4.807,-17.87l-1.873,-22.861l-1.968,-22.045l1.206,-17.305l2.852,-17.087l6.978,-14.263l5.511,-10.059l6.104,-5.813l7.026,-4.869l6.569,-2.72l9.769,-0.165l9.388,1.623l3.57,1.695l37.556,143.76l-30.852,-145.796l3.617,-4.97l5.018,-3.38l6.971,-4.379l6.049,-1.201l5.852,-0.781l5.545,-0.051l7.023,1.792l7.155,4.075l6.75,3.901l4.13,4.167l5.435,4.807l5.602,5.778l4.265,5.026l6.054,8.495l3.288,5.661l6.339,11.55l4.829,10.294l8.091,15.959l5.668,16.724l2.17,12.029l2.618,13.854l0.571,16.072l0.186,12.301l-0.701,5.934l-0.844,5.717l-2.079,7.138l-1.987,5.38l-2.601,5.623l-2.877,4.723l-2.705,3.917l-7.591,8.398l-3.956,5.835l-5.538,5.471l-5.783,4.823l-7.604,5.466l-9.079,3.385l-8.316,1.183l-6.928,0.768l-5.39,0.62l-6.152,0.019l-6.754,-0.133l-6.653,-0.684l-7.067,-1.127l-10.615,-3.145l-10.023,-3.177Z" style="fill:#fff;fill-rule:nonzero;stroke:#fff;stroke-width:1.16px;"/><path id="path4151" d="M334.638,384.283l17.769,-44.423l20.493,-38.514l22.308,-38.455l19.897,-29.511l28.231,-28.231l21.341,-14.569l31.921,-9.852l37.309,-4.896l39.72,3.75l33.678,18.498l27.323,21.4l15.119,25.582l4.718,27.635l-1.027,32.592l-5.625,28.781l-13.662,27.324l-13.483,15.358l-25.567,18.677l-22.382,17.173l-34.035,24.243l-33.366,26.118l-17.114,23.885l-23.216,41.535l-19.227,46.73l-21.951,33.856l-25.508,22.547l-27.873,19.644l-46.372,15.596l-46.373,7.441l-42.621,2.233l-34.824,-3.87l-22.189,-6.533l-17.293,-11.369l-15.536,-20.865l-7.918,-57.057l7.977,-33.499l17.412,-39.601l19.525,-28.112l30.895,-32.651l40.628,-27.085l27.278,-13.974l26.549,-9.494l27.071,-8.037Z" style="fill:none;fill-rule:nonzero;stroke:#fff;stroke-width:44.15px;"/><path id="path4153" d="M428.678,241.572l39.022,7.188l45.183,14.376l40.049,20.538l42.103,29.78l37.995,30.807" style="fill:none;fill-rule:nonzero;stroke:#fff;stroke-width:9.29px;"/><path id="path4155" d="M380.414,311.4l54.425,4.108l43.13,14.376l43.13,32.861l40.048,43.13" style="fill:none;fill-rule:nonzero;stroke:#fff;stroke-width:9.29px;stroke-linecap:butt;stroke-linejoin:miter;"/><path id="path4157" d="M341.392,400.74l23.618,0l18.485,5.135l34.914,17.457l23.619,15.403l14.376,14.377l24.646,26.699" style="fill:none;fill-rule:nonzero;stroke:#fff;stroke-width:9.29px;stroke-linecap:butt;stroke-linejoin:miter;"/><path id="path4159" d="M217.138,453.112l33.887,5.134l42.103,11.296l37.995,15.404l32.861,23.618l22.591,23.619l11.296,18.484l22.592,42.103" style="fill:none;fill-rule:nonzero;stroke:#fff;stroke-width:9.29px;stroke-linecap:butt;stroke-linejoin:miter;"/><path id="path4161" d="M161.685,519.86l59.56,13.35l30.807,12.322l36.968,19.511l30.807,27.727l16.43,18.484l28.753,35.941" style="fill:none;fill-rule:nonzero;stroke:#fff;stroke-width:9.29px;stroke-linecap:butt;stroke-linejoin:miter;"/><path id="path4163" d="M471.808,206.657l-2.054,40.049l-15.404,34.914l-23.619,48.264l-49.29,75.991l-72.91,70.855l-39.022,35.942l-36.968,26.699l-37.995,30.807l-15.404,13.349l-30.807,21.565l5.135,-4.107" style="fill:none;fill-rule:nonzero;stroke:#fff;stroke-width:9.29px;stroke-linecap:butt;stroke-linejoin:miter;"/><path id="path4165" d="M176.062,652.329l17.457,-9.242l78.044,-60.586l43.13,-37.996l34.914,-35.941l46.21,-53.398l31.834,-44.157l32.861,-43.129l26.699,-48.264l11.296,-24.646l15.403,-33.887l12.323,-44.157l5.134,-31.834" style="fill:none;fill-rule:nonzero;stroke:#fff;stroke-width:9.29px;stroke-linecap:butt;stroke-linejoin:miter;"/><path id="path4167" d="M581.685,191.254l-15.403,45.183l-17.457,55.452l-19.511,54.426l-31.834,49.291l-27.726,35.941l-17.457,21.565l-28.754,44.156l-20.537,25.673l-15.404,17.457l-28.753,31.834l-28.753,21.564l-88.313,72.91" style="fill:none;fill-rule:nonzero;stroke:#fff;stroke-width:9.29px;stroke-linecap:butt;stroke-linejoin:miter;"/><path id="path4169" d="M611.465,212.819l-9.242,47.237l-4.107,27.726l-8.216,29.78l-16.43,45.183l-14.377,40.049" style="fill:none;fill-rule:nonzero;stroke:#fff;stroke-width:9.29px;stroke-linecap:butt;stroke-linejoin:miter;"/></g></svg>