<?xml version="1.0" encoding="UTF-8" standalone="no"?><!DOCTYPE svg PUBLIC "-//W3C//DTD SVG 1.1//EN" "http://www.w3.org/Graphics/SVG/1.1/DTD/svg11.dtd"><svg width="100%" height="100%" viewBox="0 0 960 960" version="1.1" xmlns="http://www.w3.org/2000/svg" xmlns:xlink="http://www.w3.org/1999/xlink" xml:space="preserve" xmlns:serif="http://www.serif.com/" style="fill-rule:evenodd;clip-rule:evenodd;"><g id="Capa-1" serif:id="Capa 1"><path id="path3230-2-55" d="M959.652,479.826c0,265.001 -214.825,479.826 -479.826,479.826c-265.001,0 -479.826,-214.825 -479.826,-479.826c0,-265.001 214.825,-479.826 479.826,-479.826c265.001,0 479.826,214.825 479.826,479.826Z" style="fill:#da4752;"/><path id="path4080" d="M480.836,176.551l-16.85,50.761c-11.563,42.452 -19.305,88.725 -27.578,134.467c-2.103,16.512 -3.064,32.644 -8.37,50.224l-6.976,37.668l-1.61,27.365l-2.361,40.35l-0.209,57.844l5.793,56.126l6.763,44.322l13.951,54.409l15.346,36.273l4.188,9.985l8.368,6.756l-6.976,-39.063l-18.136,-54.409l-13.951,-54.409l-5.901,-38.31l-2.15,-67.61c-0.334,-24.072 1.655,-42.333 3.544,-60.847l5.151,-49.366l14.701,-69.864l15.346,-53.014l12.235,-35.735c7.906,-14.702 14.384,-29.201 21.14,-41.637c-5.733,13.136 -10.645,28.732 -15.238,45.285c-3.2,12.611 -6.297,25.326 -8.371,39.063l-10.411,61.277l-6.547,54.301l-4.614,37.884l-6.33,36.272l-2.574,34.878l1.287,40.35l1.287,34.986l2.791,36.272l5.58,40.458l9.766,40.458l8.691,23.075l4.081,10.945l10.086,-16.954l14.81,-3.115l17.386,10.195l25.862,21.143l23.716,10.516l15.347,-0l-9.766,-16.742c-1.645,-12.592 -4.919,-25.184 -3.435,-37.776c1.793,-26.679 3.889,-53.056 7.941,-77.477l5.26,49.683l2.79,39.063l5.58,44.644c11.323,-3.559 23.201,-6.562 33.483,-11.161l28.118,-13.63c7.438,-17.265 17.345,-33.541 19.532,-52.906l5.364,-18.566c3.23,8.078 4.384,17.539 4.185,27.903l0.857,16.423l-0.857,11.479l22.322,-19.532c8.823,-10.132 13.615,-18.653 16.741,-26.507c6.431,-12.858 9.041,-24.761 10.948,-36.489c3.669,-15.432 5.664,-32.538 5.901,-51.402l-1.503,-72.546c-2.931,-24.11 -6.441,-48.219 -12.769,-72.329c-4.853,-20.243 -13.168,-41.64 -21.359,-62.996c-9.595,-16.455 -18.718,-32.911 -32.729,-49.366c-13.814,-18.219 -29.989,-36.044 -50.653,-53.122l-26.186,-18.886l-21.892,-13.63l-26.936,-14.272l-27.794,-19.316l-21.035,-21.142l-8.371,-13.951l-5.8,-15.026Z" style="fill:#fefefe;fill-rule:nonzero;stroke:#fefefe;stroke-width:1.16px;"/><path id="path4082" d="M527.877,341.353l0,-12.012l-2.144,-13.729l-3.433,-10.725l-5.148,-18.448l-8.151,-18.019l-3.003,-9.867l-3.432,-6.864l-0.858,14.157l0,11.155l1.287,12.441l3.862,15.016l5.2,14.157l7.67,11.584l8.15,11.154Z" style="fill:#da4752;fill-rule:nonzero;stroke:#da4752;stroke-width:1.16px;"/><path id="path4084" d="M587.07,285.797l9.101,9.708l10.618,11.224l13.348,13.651l8.19,10.618l7.584,9.404l6.371,9.101l7.584,10.921l4.854,10.011l4.55,9.707l4.247,10.011l2.124,7.584l2.73,9.101l1.82,9.404l-9.404,-13.954l-19.416,-24.876l-11.831,-16.078l-10.921,-15.168l-10.011,-15.168l-10.01,-16.988l-8.191,-16.079l-3.337,-12.134Z" style="fill:#da4752;fill-rule:nonzero;stroke:#da4752;stroke-width:1.16px;"/><path id="path4086" d="M608.609,415.029l5.764,15.168l7.887,21.842l5.461,17.898l6.977,16.685l6.067,16.988l6.371,14.561l4.55,8.798l-2.427,-22.146l-3.033,-29.729l-2.731,-16.988l-5.46,-14.865l-5.764,-12.741l-5.764,-5.46l-11.528,-8.191l-3.337,-1.214l-3.033,-0.606Z" style="fill:#da4752;fill-rule:nonzero;stroke:#da4752;stroke-width:1.16px;"/><path id="path4088" d="M547.027,415.029l-0.305,19.111l0,20.022l1.518,19.415l3.033,26.393l2.124,13.651l3.337,14.865l2.427,-26.393l3.033,-20.932l0.607,-14.561l-0.302,-13.955l-1.517,-12.741l-2.427,-10.011l-4.551,-7.887l-6.977,-6.977Z" style="fill:#da4752;fill-rule:nonzero;stroke:#da4752;stroke-width:1.16px;"/><path id="path4090" d="M510.623,558.215l-3.943,-11.528l-3.034,-16.685l-2.73,-16.381l-2.427,-15.775l-1.517,-9.101l-2.427,-13.348l-2.731,-11.527l-3.033,6.37l-3.337,11.225l-1.82,10.617l-0.304,8.798l0.304,11.527l2.731,13.955l4.853,11.831l5.764,8.798l5.157,6.37l8.494,4.854Z" style="fill:#da4752;fill-rule:nonzero;stroke:#da4752;stroke-width:1.16px;"/><path id="path4092" d="M601.025,609.483l2.73,-8.798l1.819,-7.584l1.213,-9.707l0.911,-8.191l0.302,-9.404l-0.606,-7.887l-1.518,-10.618l-1.819,-12.741l-3.337,-14.865l-3.337,-7.887l-3.033,9.404l-1.82,11.528l-1.517,14.864l-0,19.719l1.819,12.741l2.73,12.438l2.427,8.494l3.036,8.494Z" style="fill:#da4752;fill-rule:nonzero;stroke:#da4752;stroke-width:1.16px;"/><path id="path4094" d="M703.864,615.247l3.641,-19.415l3.033,-35.19l-0.911,-20.932l-2.73,-21.539l-6.674,-19.111l-7.281,-11.831l-8.494,-7.281l-7.584,-3.034l4.854,9.708l3.944,10.921l3.033,12.134l2.427,14.562l3.034,23.055l1.517,17.291l1.518,14.562l1.819,12.134l1.213,6.371l3.641,17.595Z" style="fill:#da4752;fill-rule:nonzero;stroke:#da4752;stroke-width:1.16px;"/><path id="path4096" d="M628.631,717.176l5.763,-6.977l5.461,-8.191l3.337,-15.168l0.607,-15.775l-1.518,-14.258l-3.033,-18.808l-2.124,-10.921l-1.518,-6.067l-3.64,9.707l-2.124,13.651l-1.819,16.382l-0.304,12.438l-0,45.504l0.912,-1.517Z" style="fill:#da4752;fill-rule:nonzero;stroke:#da4752;stroke-width:1.16px;"/><path id="path4098" d="M490.602,597.045l2.123,13.348l2.731,13.651l5.46,13.955l7.281,18.201l6.37,12.438l6.674,12.741l5.157,9.708l3.641,7.887l2.427,5.764l5.157,12.741l-13.348,-14.258l-16.382,-17.898l-11.831,-18.505l-9.1,-15.775l-4.551,-21.538l0.304,-9.101l1.518,-9.708l3.337,-8.494l3.032,-5.157Z" style="fill:#da4752;fill-rule:nonzero;stroke:#da4752;stroke-width:1.16px;"/><path id="path3303" d="M451.622,780.611l-22.623,-31.532l-12.912,-29.028c-10.532,-22.761 -14.734,-47.632 -19.02,-72.474c-8.675,-47.282 -11.204,-94.563 -13.614,-141.844l4.705,-67.568c2.268,-25.292 7.208,-50.051 14.815,-74.275l19.82,-62.263l26.226,-69.27l5.706,-19.72l-19.519,13.913l-32.233,20.221l-37.939,22.222c-15.329,7.632 -27.666,17.507 -38.739,28.33c-17.184,17.117 -28.945,34.234 -40.941,51.351c-11.999,22.784 -23.049,48.666 -32.934,75.677c-6.357,20.187 -11.794,40.374 -16.016,60.561c-4.551,16.117 -7.406,40.712 -11.011,61.562l-3.604,59.561c1.183,12.112 -1.41,24.224 4.505,36.336c0.607,9.51 9.24,19.02 14.614,28.529l25.426,27.428l11.012,10.111l-12.313,-21.823l-2.803,-18.92l2.051,-11.358c11.321,14.747 17.882,29.018 26.478,43.492l18.519,27.127l23.424,23.423c13.563,7.404 27.517,16.371 39.04,15.616l16.917,2.403c-3.841,-14.148 -10.757,-30.7 -5.606,-44.848l22.523,34.637l10.309,-9.61c6.143,6.74 11.738,17.885 22.723,24.625c1.127,1.934 5.479,4.406 13.015,7.408l-0.001,0Z" style="fill:#fefefe;fill-rule:nonzero;stroke:#fefefe;stroke-width:1.16px;"/><path id="path4073" d="M357.519,323.208l7.669,-11.149l8.009,-14.017l12.415,-18.822c3.684,-4.152 6.807,-9.144 11.613,-11.614l-11.613,1.602c-4.394,0.9 -8.353,2.723 -11.776,4.865c-4.343,2.784 -5.839,5.567 -7.847,8.351l-6.008,11.213l-6.007,12.414l-8.81,10.012l-9.611,10.012l-3.204,8.81l-0.4,7.209l6.808,-2.803l8.41,-5.607l5.206,-5.607l5.146,-4.869Z" style="fill:#da4752;fill-rule:nonzero;stroke:#da4752;stroke-width:1.16px;"/><path id="path4075" d="M355.917,501.95l1.662,-42.118l4.405,-42.45l2.403,-20.424l4.405,-24.428l4.92,-19.555c-6.357,3.498 -9.277,8.961 -13.731,13.548l-9.607,22.771l-4.009,23.283l-1.201,22.026l2.003,22.826l2.403,18.422l6.347,26.099Z" style="fill:#da4752;fill-rule:nonzero;stroke:#da4752;stroke-width:1.16px;"/><path id="path4077" d="M300.767,483.869c2.235,-6.397 3.979,-12.555 4.405,-19.572c0.8,-8.285 2.085,-16.247 1.148,-25.69l0,-19.222l-3.604,-22.427l-4.405,-10.812l-7.609,26.831l-0.4,22.026c-0.899,6.408 0.421,12.815 1.601,19.223l2.003,10.412l4.802,13.846l2.059,5.385Z" style="fill:#da4752;fill-rule:nonzero;stroke:#da4752;stroke-width:1.16px;"/><path id="path4079" d="M258.884,473.746l-0.623,15.721l-0.399,49.658l2.002,31.237l2.804,25.63l2.918,28.664l-10.127,-21.055c-4.65,-11.48 -7.994,-22.96 -10.812,-34.44l-2.804,-26.832l0,-16.419c0.639,-8.526 1.548,-17.007 4.005,-25.23c1.603,-6.14 4.071,-12.281 7.209,-18.421c1.136,-3.241 3.497,-5.869 5.827,-8.513Z" style="fill:#da4752;fill-rule:nonzero;stroke:#da4752;stroke-width:1.16px;"/><path id="path4081" d="M311.524,548.643c2.86,8.308 4.176,15.073 5.543,21.89l3.268,23.057l4.406,27.632l3.038,10.472l6.574,14.758l2.403,7.208l2.003,8.811l-0.344,11.835l-4.401,-2.744l-3.485,-4.401l-2.463,-7.673c-0.298,-3.973 -4.534,-8.385 -7.328,-12.636l-10.412,-12.014l-4.806,-10.412l-2.003,-17.621l-0,-12.815l6.007,-38.045l0.804,-9.432l1.196,2.13Z" style="fill:#da4752;fill-rule:nonzero;stroke:#da4752;stroke-width:1.16px;"/></g></svg>