<?xml version="1.0" encoding="UTF-8" standalone="no"?><!DOCTYPE svg PUBLIC "-//W3C//DTD SVG 1.1//EN" "http://www.w3.org/Graphics/SVG/1.1/DTD/svg11.dtd"><svg width="100%" height="100%" viewBox="0 0 960 960" version="1.1" xmlns="http://www.w3.org/2000/svg" xmlns:xlink="http://www.w3.org/1999/xlink" xml:space="preserve" xmlns:serif="http://www.serif.com/" style="fill-rule:evenodd;clip-rule:evenodd;stroke-linecap:round;stroke-linejoin:round;"><g id="Capa-1" serif:id="Capa 1"><path d="M959.652,480.137c0,265.001 -214.825,479.826 -479.826,479.826c-265.001,0 -479.826,-214.825 -479.826,-479.826c0,-265 214.825,-479.826 479.826,-479.826c265.001,0 479.826,214.826 479.826,479.826Z" style="fill:#9a8e6c;"/><path id="path4248-1" d="M479.965,0.311c29.602,0.008 58.578,2.698 86.698,7.838l1.397,1.19l8.843,9.067l8.16,14.427c2.605,5.142 4.977,10.352 5.382,16.141l-0.014,13.466l-2.026,10.917c-2.207,5.021 -5.292,9.383 -8.009,14.022c-4.221,4.073 -8.332,6.646 -12.33,7.664l-12.093,2.658c-7.253,-0.783 -16.256,-3.217 -20.309,-5.245l-11.992,-5.897l-4.853,-2.611l-6.535,-5.258l-7.456,-7.679l-11.945,-11.744l-8.924,-10.164l-7.636,-9.196l-7.57,-9.665l-8.838,-13.555l-7.829,-14.525l-0.371,-1.041c6.188,-0.358 12.408,-0.598 18.657,-0.719c19.898,13.677 39.813,27.841 59.763,42.976c1.271,-1.403 4.689,-0.955 2.219,-5.588c-17.381,-12.82 -34.827,-25.38 -52.389,-37.479Z" style="fill:#fff;fill-rule:nonzero;stroke:#fff;stroke-width:0.62px;"/><path id="path4248" d="M544.179,429.469l6.471,-8.627l11.502,-10.784l15.817,-11.503l24.444,-18.693l20.489,-13.299l18.333,-11.143l19.053,-10.785l25.88,-11.504l26.961,-8.986l12.941,-1.796l9.346,0.718l4.673,3.235c-41.674,46.048 -84.284,91.862 -129.768,136.958c1.65,3.259 -0.678,9.999 7.908,7.189c43.912,-44.696 86.925,-89.991 127.971,-136.598l1.078,12.221c-0.407,6.805 -1.153,14.287 -2.516,23.005l-5.751,29.476l-10.785,27.322l-27.319,58.234l-15.817,28.038l-10.784,17.254l-11.503,13.301l-15.816,14.019l-18.692,13.66l-26.961,9.706c-9.466,2.843 -18.932,5.178 -28.397,3.234l-21.568,-6.469l-16.536,-9.347c-7.004,-6.895 -12.541,-15.257 -18.692,-23.006c-4.539,-10.538 -6.724,-20.135 -6.471,-28.757l1.439,-25.882c4.673,-14.386 12.814,-31.543 17.973,-38.822l15.097,-21.569Z" style="fill:#fff;fill-rule:nonzero;stroke:#fff;stroke-width:1.16px;"/><path id="path4248-0" d="M383.372,480.471l-5.547,7.311l-9.785,9.079l-13.4,9.625l-20.724,15.662l-17.332,11.09l-15.496,9.273l-16.089,8.951l-21.804,9.455l-22.665,7.27l-10.837,1.327l-7.793,-0.776l-3.848,-2.862c35.567,-38.897 71.912,-77.576 110.646,-115.589c-1.325,-2.832 0.734,-8.589 -6.485,-6.318c-37.414,37.696 -74.087,75.923 -109.139,115.311l-0.7,-10.53c0.454,-5.845 1.202,-12.268 2.484,-19.743l5.293,-25.254l9.46,-23.316l23.783,-49.621l13.674,-23.847l9.293,-14.657l9.827,-11.244l13.442,-11.789l15.837,-11.431l22.676,-7.89c7.952,-2.284 15.896,-4.132 23.769,-2.3l17.903,5.931l13.654,8.32c5.734,6.05 10.22,13.336 15.228,20.105c3.615,9.141 5.28,17.432 4.925,24.843l-1.631,22.236c-4.141,12.294 -11.225,26.912 -15.655,33.085l-12.964,18.293Z" style="fill:#fff;fill-rule:nonzero;stroke:#fff;stroke-width:0.98px;"/><path id="path4248-5" d="M450.306,281.034l-3.258,-7.372l-3.079,-11.571l-2.251,-14.789l-4.025,-23.165l-1.961,-18.619l-1.304,-16.405l-0.88,-16.779l0.678,-21.734l2.493,-21.631l2.696,-9.534l3.149,-6.206l3.288,-2.133c15.313,44.272 30.214,89.111 43.849,135.69c2.423,-0.046 5.763,3.838 6.587,-3.033c-13.855,-45.361 -28.33,-90.303 -44.158,-134.33l7.598,3.375c3.937,2.574 8.179,5.61 12.978,9.489l15.893,13.901l13.144,16.649l26.754,38.475l12.106,20.362l7.144,13.255l4.579,12.419l3.751,15.637l2.699,17.501l-2.063,21.873c-1.06,7.489 -2.425,14.807 -6.339,20.683l-10.134,12.701l-10.384,8.259c-6.149,2.509 -12.745,3.511 -19.153,5.144c-7.602,-0.42 -13.958,-2.147 -19.023,-5.227l-15.006,-9.715c-7.213,-8.072 -15.069,-19.471 -17.906,-25.484l-8.462,-17.686Z" style="fill:#fff;fill-rule:nonzero;stroke:#fff;stroke-width:0.83px;"/><path id="path4248-19" d="M448.731,781.038l-5.164,-6.79l-5.543,-10.929l-4.966,-14.192l-8.405,-22.163l-5.154,-17.984l-4.006,-15.902l-3.528,-16.325l-2.279,-21.388l0.021,-21.528l2.021,-9.703l3.069,-6.501l3.832,-2.53c25.657,41.343 50.876,83.295 74.755,127.123c3.044,-0.363 7.808,2.991 7.854,-3.851c-23.979,-42.603 -48.677,-84.714 -74.947,-125.747l10.05,2.293c5.327,1.996 11.104,4.407 17.704,7.568l22.01,11.504l18.946,14.562l39.223,34.137l18.174,18.34l10.904,12.037l7.554,11.559l6.975,14.824l5.921,16.789l0.553,21.709c-0.258,7.48 -0.915,14.833 -4.998,21.113l-10.926,13.797l-11.881,9.477c-7.378,3.278 -15.536,5.14 -23.368,7.594c-9.63,0.602 -17.88,-0.244 -24.699,-2.587l-20.29,-7.519c-10.244,-6.949 -21.776,-17.072 -26.213,-22.586l-13.199,-16.201Z" style="fill:#fff;fill-rule:nonzero;stroke:#fff;stroke-width:0.93px;"/></g></svg>