<?xml version="1.0" encoding="UTF-8" standalone="no"?><!DOCTYPE svg PUBLIC "-//W3C//DTD SVG 1.1//EN" "http://www.w3.org/Graphics/SVG/1.1/DTD/svg11.dtd"><svg width="100%" height="100%" viewBox="0 0 960 960" version="1.1" xmlns="http://www.w3.org/2000/svg" xmlns:xlink="http://www.w3.org/1999/xlink" xml:space="preserve" xmlns:serif="http://www.serif.com/" style="fill-rule:evenodd;clip-rule:evenodd;stroke-linecap:round;stroke-linejoin:round;"><g id="Capa-1" serif:id="Capa 1"><path id="path3230-2-5" d="M959.652,479.826c0,265.001 -214.825,479.826 -479.826,479.826c-265.001,0 -479.826,-214.825 -479.826,-479.826c0,-265.001 214.825,-479.826 479.826,-479.826c265.001,0 479.826,214.825 479.826,479.826Z" style="fill:#02a75b;"/><path id="path4005" d="M176.319,696.139l19.151,13.524l19.515,8.714l24.053,7.261l20.331,5.083l31.95,5.083l21.057,3.086l19.333,0.453l24.235,-1.361l37.758,-6.535l30.497,-5.083l24.87,-6.172l44.475,-11.164l25.051,-7.352l36.125,-12.344l28.864,-8.805c9.285,-3.111 17.514,-4.638 25.868,-6.353c8.914,-2.061 18.531,-2.893 28.409,-3.268c14.048,-0.211 24.573,0.617 37.214,3.359c7.867,1.708 15.733,4.664 23.599,7.806c7.987,4.24 16.024,8.076 23.781,14.159c7.692,4.715 13.429,10.733 19.787,16.338l23.236,23.962c7.886,9.888 17.068,19.453 23.236,29.771l8.078,8.804c0.904,-0.232 1.784,-0.64 2.451,-2.541c2.782,2.38 4.072,5.009 5.445,7.624c-2.662,-0.07 -5.325,0.209 -7.987,0.635l-9.258,-2.087l-18.879,-3.177l-27.775,-0.272l-27.683,1.906l-36.216,6.535c-12.965,3.004 -26.515,7.471 -39.936,11.618l-66.35,22.51c-27.834,11.844 -57.737,20.142 -86.409,30.497l-41.843,7.987l-38.666,6.898l-28.137,3.268l-45.746,0.726l-36.306,-5.083c-9.924,-3.012 -19.848,-5.993 -29.771,-10.892c-13.703,-5.565 -23.475,-13.91 -34.128,-21.783c-11.481,-11.88 -23.602,-24.212 -29.499,-38.213l-9.621,-18.516l-8.078,-24.597l-2.541,-15.34l-1.09,-18.788l-0.727,-5.809l-1.723,-12.072Z" style="fill:#fefefe;fill-rule:nonzero;stroke:#fefefe;stroke-width:1.16px;"/><path id="path4011" d="M226.59,790.965l-1.434,-7.852l-0.472,-3.684l1.571,-8.216l3.413,-10.284l3.081,-4.878l5.647,-4.108l7.189,-3.85l7.958,-1.797l7.188,-0.257l10.526,2.054l9.755,4.426l10.526,6.099l9.499,8.472l7.188,11.039l7.445,14.377l2.31,13.606l-0.258,10.269l-4.878,12.836c-1.199,1.506 -2.396,2.829 -3.594,3.851l-1.584,-0.513l-6.631,4.877l-5.648,3.338l-17.971,-0.257l-13.093,-4.108l-11.296,-6.418l-9.755,-8.471l-7.445,-8.986l-4.878,-9.499l-2.309,-5.391l-2.05,-6.675Z" style="fill:#02a75b;fill-rule:nonzero;stroke:#02a75b;stroke-width:1.16px;"/><path id="path4011-1" d="M324.99,798.028l-1.524,-5.038c-0.367,-2.223 -1.88,-4.119 -0.744,-6.771l0.116,-9.668c0.14,-4.659 2.412,-9.589 3.867,-13.37c1.366,-2.31 3.623,-4.504 6.439,-6.33l3.833,-3.745c1.322,-1.352 3.771,-2.03 6.28,-2.671c2.706,-0.703 2.602,-1.242 8.957,-2.16l8.913,0.107l9.073,1.691c4.341,1.544 8.682,2.428 13.023,5.062l11.434,7.098l7.956,7.11l8.095,10.132c3.404,4.913 6.168,10.734 8.444,15.647c1.097,3.628 1.464,7.255 2.128,10.883c0.358,5.75 0.286,11.356 -0.801,16.623c-0.551,5.079 -2.665,8.819 -4.878,12.473c-1.199,1.505 -2.214,2.919 -3.413,3.941l-2.583,2.482l-5.905,2.972l-7.826,2.702c-5.929,1.608 -11.859,0.293 -17.789,0.378l-13.456,-4.561c-3.782,-2.114 -8.847,-3.53 -11.75,-6.963c-2.764,-0.874 -6.049,-6.191 -9.301,-9.016l-7.899,-8.441l-4.424,-7.048l-3.58,-7.207l-2.685,-6.312Z" style="fill:#02a75b;fill-rule:nonzero;stroke:#02a75b;stroke-width:1.16px;"/><path id="path4011-3" d="M427.288,788.605l-1.887,-6.037l-0.562,-6.317c-1.439,-5.228 -0.209,-8.179 -0.163,-12.118l3.594,-9.196l4.261,-5.604c1.761,-2.206 3.523,-4.523 5.285,-5.559c2.918,-1.482 6.071,-3.432 8.549,-4.033l8.322,-1.525l8.278,-0.438c4.352,0.701 8.89,1.31 12.794,2.235c3.655,1.264 8.022,2.528 10.119,3.792c3.606,2.241 8.1,4.039 10.798,6.734c4.606,3.25 7.429,6.277 10.134,9.289c3.162,3.156 5.994,5.215 9.82,10.585c3.712,7.02 8.356,14.118 9.352,20.912c0.611,4.993 1.694,11.01 0.948,13.062c-0.14,4.36 -1.585,7.429 -3.163,10.359c-2.212,4.418 -4.391,8.871 -7.782,12.11c-1.199,1.506 -2.85,2.92 -4.048,3.942l-2.31,1.756l-6.358,1.701l-5.92,2.792c-5.991,1.299 -11.981,0.275 -17.971,-0.256l-13.093,-4.108l-11.296,-6.418l-9.755,-8.472l-7.445,-8.985l-4.878,-9.499l-2.31,-5.391l-3.313,-5.313Z" style="fill:#02a75b;fill-rule:nonzero;stroke:#02a75b;stroke-width:1.16px;"/><path id="path4011-8" d="M520.31,752.637c-1.267,-3.494 -1.448,-7.205 -1.525,-10.938l-0.209,-8.586l1.39,-4.312c1.652,-4.68 3.304,-6.747 4.956,-9.922l4.26,-5.059l5.648,-4.107l7.188,-3.851l7.959,-1.797l7.188,-0.257l10.526,2.054l9.755,3.337l10.617,4.556l10.588,7.383l9.457,10.313c4.931,5.675 6.542,9.506 9.533,14.104c2.019,4.839 4.505,9.724 4.216,14.333c0.711,5.196 0.418,8.717 0.469,12.81c-1.501,4.926 -3.015,9.393 -5.967,13.835c-1.199,1.505 -3.304,4.371 -4.502,5.393l-4.307,3.299l-3.818,2.427l-11.003,2.521c-6.062,0.664 -12.244,0.79 -18.787,-0.711l-14.455,-4.561l-12.657,-7.054c-4.19,-1.95 -6.35,-5.061 -8.938,-7.927l-6.901,-8.532l-4.968,-7.683l-3.036,-5.301l-2.677,-5.767Z" style="fill:#02a75b;fill-rule:nonzero;stroke:#02a75b;stroke-width:1.16px;"/><path id="path4011-0" d="M620.072,728.772l-1.978,-7.579l-0.471,-4.411c0.046,-2.737 0.139,-5.445 0.662,-7.943c0.358,-3.546 2.617,-7.852 4.048,-11.828l4.261,-4.515l6.374,-4.107c2.668,-1.163 5.337,-2.325 8.005,-3.488l7.505,-0.436l7.37,-0.438l11.433,2.054c3.023,1.419 3.989,1.301 8.757,3.156c4.922,2.984 10.544,5.658 13.43,9.548c2.599,1.057 4.526,3.123 6.685,4.841l8.641,8.498c3.507,4.774 5.528,10.788 7.626,16.736c1.134,4.838 2.51,9.676 2.491,14.514c-0.727,3.642 -0.899,6.726 -1.166,9.906l-3.607,7.3c-1.199,1.505 -4.938,5.552 -6.136,6.574l-3.853,2.663l-3.818,1.428l-7.191,1.976l-14.249,0.742l-13.91,-3.291l-11.023,-5.782l-10.663,-7.746l-11.439,-11.708l-3.244,-4.87l-2.219,-5.482l-2.321,-6.312Z" style="fill:#02a75b;fill-rule:nonzero;stroke:#02a75b;stroke-width:1.16px;"/><path id="path4068" d="M324.915,235.159l8.215,-28.24l6.675,-18.997l9.755,-19.511l10.783,-20.025l13.863,-19.511l11.296,-14.376l8.215,-9.242l11.809,-12.837l17.971,9.756l20.024,14.376l23.619,17.971l16.943,17.971l13.864,14.376l13.349,18.998l11.81,16.43l9.755,16.944l6.675,16.43l5.648,17.971l3.08,17.457l1.028,19.511l-1.028,17.971l-6.161,17.97l-6.675,17.971l-10.269,16.944l-10.269,12.836l-13.349,15.917l-13.35,13.35l-25.672,18.484c-12.835,-83.863 -23.226,-167.727 -41.076,-251.59c6.369,79.804 18.058,166.702 28.24,251.59l-13.864,-4.621l-11.809,-2.568l-14.89,-6.674l-19.511,-10.269l-9.242,-5.648l-8.728,-6.675l-11.81,-9.242l-9.242,-9.756l-9.242,-10.782l-9.242,-15.404l-9.242,-26.185l-2.054,-10.783l-2.567,-21.051l2.054,-18.484l2.567,-17.971l2.054,-10.782Z" style="fill:#fff;fill-rule:nonzero;stroke:#fff;stroke-opacity:0.94;stroke-width:1.16px;"/><path id="path4070" d="M445.061,496.503l-200.244,-20.024l44.157,9.242l41.075,6.675l31.834,4.107l44.156,7.189l35.942,4.107l-9.756,15.917l-11.809,15.917l-14.89,15.403l-13.863,11.296l-15.917,10.269l-17.97,6.162l-15.917,3.08l-21.565,0l-18.998,-3.594l-18.997,-5.648l-26.699,-12.322l-28.24,-17.971l-21.051,-17.457l-15.917,-16.944l-16.431,-20.538l-10.269,-14.377l-8.728,-13.349l12.836,-11.296l20.538,-17.971l13.863,-10.269l13.863,-8.728l27.213,-13.35l18.484,-8.728l21.565,-5.135l26.185,-3.594l21.565,-0.514l20.025,3.595l16.943,4.107l19.511,10.783l17.458,17.457l16.43,21.565l13.863,22.591l6.161,21.565l3.594,10.782Z" style="fill:#fff;fill-rule:nonzero;stroke:#fff;stroke-opacity:0.94;stroke-width:1.16px;"/><path id="path4072" d="M481.003,489.829l2.054,-16.944l-0,-14.377l3.081,-12.836l5.134,-18.997l10.269,-21.565l13.35,-19.511l21.051,-19.511l20.538,-10.783l15.917,-6.161l22.591,-3.081l17.971,-2.053l23.105,0.513l21.051,1.54l23.619,4.108l22.592,6.675l20.538,7.701l19.511,7.189l20.537,12.836l-3.08,13.863l-7.702,17.457l-11.809,28.24l-12.836,20.538l-10.783,14.376l-14.89,20.538l-13.349,15.404c-5.458,5.99 -11.364,8.899 -19.511,14.89l-18.484,12.322l-16.431,7.702l-17.457,5.648l-17.971,2.054l-21.564,-1.027l-20.025,-6.161l-24.132,-10.783l-21.051,-13.863l-17.971,-14.376l-9.242,-11.81l121.687,-47.75l49.804,-20.025l40.049,-16.944l50.832,-19.548l-49.291,16.468l-44.67,15.917l-36.455,12.836l-34.401,10.782l-39.535,15.404l-24.646,8.215l-37.995,14.89Z" style="fill:#fff;fill-rule:nonzero;stroke:#fff;stroke-opacity:0.94;stroke-width:1.16px;"/><path id="path3231" d="M450.196,421.54l12.323,0.514l2.065,11.308l1.016,9.743l0.513,14.377l1.552,17.457l3.069,18.997l10.269,-5.134l4.107,10.269l-13.863,6.161l1.541,13.863l0.513,10.783l0,23.105l-1.027,14.89l-1.541,12.322l-1.54,12.837l-3.081,14.89l-5.134,17.457l-5.135,13.863l-6.675,13.35l-9.242,16.43l-7.188,12.323l-8.729,-3.595l6.675,-9.242l8.216,-14.89l8.728,-19.511l5.648,-16.943l4.107,-12.323l2.568,-12.323l2.567,-12.323c1.482,-11.813 2.436,-25.209 2.567,-41.075l-0.513,-21.565l-2.567,-8.215l-19.511,-1.027l3.08,-11.296l14.89,1.54l-3.594,-17.457l-2.054,-20.538l-0.495,-12.811l-4.125,-26.211Z" style="fill:#fff;fill-rule:nonzero;stroke:#fff;stroke-opacity:0.94;stroke-width:1.16px;"/></g></svg>