<?xml version="1.0" encoding="UTF-8" standalone="no"?><!DOCTYPE svg PUBLIC "-//W3C//DTD SVG 1.1//EN" "http://www.w3.org/Graphics/SVG/1.1/DTD/svg11.dtd"><svg width="100%" height="100%" viewBox="0 0 707 707" version="1.1" xmlns="http://www.w3.org/2000/svg" xmlns:xlink="http://www.w3.org/1999/xlink" xml:space="preserve" xmlns:serif="http://www.serif.com/" style="fill-rule:evenodd;clip-rule:evenodd;stroke-linecap:round;stroke-linejoin:round;"><g id="Capa-1" serif:id="Capa 1"><path id="path3230-2-9" d="M706.063,353.031c-0,194.974 -158.058,353.032 -353.032,353.032c-194.973,-0 -353.031,-158.058 -353.031,-353.032c0,-194.973 158.058,-353.031 353.031,-353.031c194.974,0 353.032,158.058 353.032,353.031Z" style="fill:#82104e;"/><text x="203.541px" y="249.989px" style="font-family:'Arial-BoldMT', 'Arial', sans-serif;font-weight:700;font-size:170.958px;fill:#fff;">E</text><text x="304.908px" y="250.862px" style="font-family:'Arial-BoldMT', 'Arial', sans-serif;font-weight:700;font-size:170.958px;fill:#fff;">-</text><text x="359.039px" y="249.989px" style="font-family:'Arial-BoldMT', 'Arial', sans-serif;font-weight:700;font-size:170.958px;fill:#fff;">X</text><path id="path4062" d="M457.737,579.216l-0.325,-21.546l103.09,-61.25l-1.301,-127.144l-102.44,-57.999l-0.276,-23.543l-15.696,-0.047l-0,23.079l-88.508,51.592l-90.134,-52.195l0.371,-22.058l-14.999,-0.278l0,22.057l-102.3,58.65l-0.882,129.511l103.089,59.671l-0.051,21.036l15.556,0.557l-0.136,-21.779l88.136,-51.916l89.809,51.174l-0.65,22.846l17.647,-0.418Z" style="fill:#fff;fill-rule:nonzero;stroke:#fff;stroke-width:0.85px;"/><path id="path4074" d="M255.812,338.294l82.113,47.504l0.226,94.97l-83.32,49.765l-83.395,-48.106l0.376,-97.647l84,-46.486Z" style="fill:#82104e;fill-rule:nonzero;stroke:#82104e;stroke-width:0.85px;stroke-linecap:butt;stroke-linejoin:miter;"/><path id="path3266" d="M187.473,390.646l8.144,13.717l63.441,-36.864l-7.643,-13.539l-63.942,36.686Z" style="fill:#fff;fill-rule:nonzero;stroke:#fff;stroke-width:0.85px;stroke-linecap:butt;stroke-linejoin:miter;"/><path id="path4074-5" d="M451.151,333.17l82.114,47.504l0.225,94.969l-83.319,49.766l-83.396,-48.107l0.376,-97.646l84,-46.486Z" style="fill:#82104e;fill-rule:nonzero;stroke:#82104e;stroke-width:0.85px;stroke-linecap:butt;stroke-linejoin:miter;"/><path id="path3266-0" d="M381.438,390.487l8.144,13.717l63.441,-36.864l-7.643,-13.539l-63.942,36.686Z" style="fill:#fff;fill-rule:nonzero;stroke:#fff;stroke-width:0.85px;stroke-linecap:butt;stroke-linejoin:miter;"/><path id="path4054" d="M504.535,397.191l15.157,0.303l-0.303,76.694l-66.994,39.712l-7.579,-13.945l59.416,-33.648l0.303,-69.116Z" style="fill:#fff;fill-rule:nonzero;stroke:#fff;stroke-width:0.85px;stroke-linecap:butt;stroke-linejoin:miter;"/><path id="path4054-2" d="M309.767,397.039l16.672,0.303l-0.302,76.695l-66.994,39.711l-8.791,-13.035l59.415,-33.951l-0,-69.723Z" style="fill:#fff;fill-rule:nonzero;stroke:#fff;stroke-width:0.85px;stroke-linecap:butt;stroke-linejoin:miter;"/><path id="path4064" d="M184.328,380.559c0,13.005 -10.543,23.548 -23.55,23.548c-13.006,-0 -23.549,-10.543 -23.549,-23.548c-0,-13.005 10.543,-23.547 23.549,-23.547c13.007,-0 23.55,10.542 23.55,23.547Z" style="fill:#fff;fill-rule:nonzero;stroke:#82104e;stroke-width:13.68px;"/><path id="path4064-8" d="M183.243,487.122c0,13.005 -10.543,23.548 -23.549,23.548c-13.007,-0 -23.55,-10.543 -23.55,-23.548c-0,-13.005 10.543,-23.547 23.55,-23.547c13.006,-0 23.549,10.542 23.549,23.547Z" style="fill:#fff;fill-rule:nonzero;stroke:#82104e;stroke-width:13.68px;"/><path id="path4064-2" d="M375.884,492.32c-0,13.005 -10.544,23.548 -23.55,23.548c-13.006,-0 -23.55,-10.543 -23.55,-23.548c0,-13.005 10.544,-23.548 23.55,-23.548c13.006,0 23.55,10.543 23.55,23.548Z" style="fill:#fff;fill-rule:nonzero;stroke:#82104e;stroke-width:13.68px;"/><path id="path4064-0" d="M569.919,490.069c0,13.005 -10.544,23.548 -23.55,23.548c-13.006,-0 -23.549,-10.543 -23.549,-23.548c-0,-13.005 10.543,-23.548 23.549,-23.548c13.006,0 23.55,10.543 23.55,23.548Z" style="fill:#fff;fill-rule:nonzero;stroke:#82104e;stroke-width:13.68px;"/></g></svg>