<?xml version="1.0" encoding="UTF-8" standalone="no"?><!DOCTYPE svg PUBLIC "-//W3C//DTD SVG 1.1//EN" "http://www.w3.org/Graphics/SVG/1.1/DTD/svg11.dtd"><svg width="100%" height="100%" viewBox="0 0 371 70" version="1.1" xmlns="http://www.w3.org/2000/svg" xmlns:xlink="http://www.w3.org/1999/xlink" xml:space="preserve" xmlns:serif="http://www.serif.com/" style="fill-rule:evenodd;clip-rule:evenodd;stroke-linejoin:round;stroke-miterlimit:2;"><g><path d="M65.641,19.535c0,-8.482 -6.886,-15.368 -15.369,-15.368l-30.737,-0c-8.482,-0 -15.368,6.886 -15.368,15.368l-0,30.737c-0,8.483 6.886,15.369 15.368,15.369l30.737,0c8.483,0 15.369,-6.886 15.369,-15.369l0,-30.737Z" style="fill:#c3ff01;"/><path d="M69.808,19.535l-0,30.737c-0,10.782 -8.754,19.536 -19.536,19.536l-30.737,-0c-10.782,-0 -19.535,-8.754 -19.535,-19.536l-0,-30.737c-0,-10.782 8.753,-19.535 19.535,-19.535l30.737,-0c10.782,-0 19.536,8.753 19.536,19.535Zm-4.167,0c0,-8.482 -6.886,-15.368 -15.369,-15.368l-30.737,-0c-8.482,-0 -15.368,6.886 -15.368,15.368l-0,30.737c-0,8.483 6.886,15.369 15.368,15.369l30.737,0c8.483,0 15.369,-6.886 15.369,-15.369l0,-30.737Z"/><path d="M144.859,19.535l-0,30.737c-0,10.782 -8.754,19.536 -19.536,19.536l-30.737,-0c-10.782,-0 -19.535,-8.754 -19.535,-19.536l0,-30.737c0,-10.782 8.753,-19.535 19.535,-19.535l30.737,-0c10.782,-0 19.536,8.753 19.536,19.535Zm-4.167,0c0,-8.482 -6.886,-15.368 -15.369,-15.368l-30.737,-0c-8.482,-0 -15.368,6.886 -15.368,15.368l-0,30.737c-0,8.483 6.886,15.369 15.368,15.369l30.737,0c8.483,0 15.369,-6.886 15.369,-15.369l0,-30.737Z"/><path d="M219.91,19.535l-0,30.737c-0,10.782 -8.754,19.536 -19.535,19.536l-30.738,-0c-10.781,-0 -19.535,-8.754 -19.535,-19.536l0,-30.737c0,-10.782 8.754,-19.535 19.535,-19.535l30.738,-0c10.781,-0 19.535,8.753 19.535,19.535Zm-4.167,0c0,-8.482 -6.886,-15.368 -15.368,-15.368l-30.738,-0c-8.482,-0 -15.368,6.886 -15.368,15.368l-0,30.737c-0,8.483 6.886,15.369 15.368,15.369l30.738,0c8.482,0 15.368,-6.886 15.368,-15.369l0,-30.737Z"/><path d="M294.961,19.535l-0,30.737c-0,10.782 -8.754,19.536 -19.535,19.536l-30.738,-0c-10.781,-0 -19.535,-8.754 -19.535,-19.536l0,-30.737c0,-10.782 8.754,-19.535 19.535,-19.535l30.738,-0c10.781,-0 19.535,8.753 19.535,19.535Zm-4.167,0c0,-8.482 -6.886,-15.368 -15.368,-15.368l-30.738,-0c-8.482,-0 -15.368,6.886 -15.368,15.368l-0,30.737c-0,8.483 6.886,15.369 15.368,15.369l30.738,0c8.482,0 15.368,-6.886 15.368,-15.369l0,-30.737Z"/><path d="M370.012,19.535l-0,30.737c-0,10.782 -8.754,19.536 -19.535,19.536l-30.738,-0c-10.781,-0 -19.535,-8.754 -19.535,-19.536l0,-30.737c0,-10.782 8.754,-19.535 19.535,-19.535l30.738,-0c10.781,-0 19.535,8.753 19.535,19.535Zm-4.167,0c0,-8.482 -6.886,-15.368 -15.368,-15.368l-30.738,-0c-8.482,-0 -15.368,6.886 -15.368,15.368l-0,30.737c-0,8.483 6.886,15.369 15.368,15.369l30.738,0c8.482,0 15.368,-6.886 15.368,-15.369l0,-30.737Z"/></g></svg>