<?xml version="1.0" encoding="UTF-8" standalone="no"?><!DOCTYPE svg PUBLIC "-//W3C//DTD SVG 1.1//EN" "http://www.w3.org/Graphics/SVG/1.1/DTD/svg11.dtd"><svg width="100%" height="100%" viewBox="0 0 262 300" version="1.1" xmlns="http://www.w3.org/2000/svg" xmlns:xlink="http://www.w3.org/1999/xlink" xml:space="preserve" xmlns:serif="http://www.serif.com/" style="fill-rule:evenodd;clip-rule:evenodd;stroke-linejoin:round;stroke-miterlimit:2;"><path d="M4.667,71.449l121.587,-70.199c1.444,-0.833 3.055,-1.25 4.667,-1.25c1.611,-0 3.223,0.417 4.667,1.25l121.587,70.199c1.444,0.833 2.61,2.021 3.416,3.416c0.806,1.396 1.251,3 1.251,4.667l-0,140.397c-0,1.667 -0.445,3.271 -1.251,4.667c-0.806,1.395 -1.972,2.582 -3.416,3.416l-121.587,70.198c-1.444,0.834 -3.056,1.251 -4.667,1.251c-1.612,-0 -3.223,-0.417 -4.667,-1.251l-121.587,-70.198c-1.444,-0.834 -2.611,-2.021 -3.416,-3.416c-0.806,-1.396 -1.251,-3 -1.251,-4.667l0,-140.397c-0,-1.667 0.445,-3.271 1.251,-4.667c0.805,-1.395 1.972,-2.583 3.416,-3.416Zm116.92,-45.948l-93.585,54.031l26.724,15.429c15.333,-21.284 39.36,-35.897 66.861,-38.618l-0,-30.842Zm121.587,178.261l-0,-108.063l-26.705,15.418c5.33,11.78 8.298,24.853 8.298,38.613c0,13.761 -2.968,26.834 -8.298,38.614l26.705,15.418Zm-42.973,-24.811c3.798,-8.985 5.898,-18.859 5.898,-29.221c0,-10.361 -2.1,-20.236 -5.898,-29.22l-59.946,34.609l-0,69.215c20.605,-2.556 38.635,-13.464 50.593,-29.227c3.751,-4.943 6.904,-10.365 9.353,-16.156Zm33.639,-99.419l-93.585,-54.031l-0,30.842c27.5,2.721 51.528,17.334 66.861,38.618l26.724,-15.429Zm-215.172,16.167l-0,108.063l26.705,-15.418c-5.33,-11.78 -8.298,-24.853 -8.298,-38.614c-0,-13.76 2.968,-26.833 8.298,-38.613l-26.705,-15.418Zm9.334,124.23l93.585,54.031l-0,-30.843c-27.501,-2.72 -51.528,-17.333 -66.861,-38.618l-26.724,15.43Zm93.585,-144.802c-20.605,2.556 -38.635,13.464 -50.593,29.226l59.927,34.599l59.927,-34.599c-11.958,-15.762 -29.988,-26.67 -50.593,-29.226c-3.059,-0.38 -6.174,-0.575 -9.334,-0.575c-3.161,-0 -6.276,0.195 -9.334,0.575Zm18.668,198.833l93.585,-54.031l-26.724,-15.43c-15.333,21.285 -39.361,35.898 -66.861,38.618l-0,30.843Zm-69.261,-78.853c11.958,15.763 29.988,26.671 50.593,29.227l-0,-69.215l-59.946,-34.609c-3.798,8.984 -5.899,18.859 -5.899,29.22c0,10.362 2.101,20.236 5.899,29.221c2.448,5.791 5.602,11.213 9.353,16.156Z" style="fill:#fff;"/></svg>