{
    "asset" : {
        "generator" : "Khronos glTF Blender I/O v3.3.32",
        "version" : "2.0"
    },
    "scene" : 0,
    "scenes" : [
        {
            "name" : "Scene",
            "nodes" : [
                0
            ]
        }
    ],
    "nodes" : [
        {
            "mesh" : 0,
            "name" : "defaultMaterial",
            "translation" : [
                0,
                1.7721792459487915,
                -0.07482588291168213
            ]
        }
    ],
    "materials" : [
        {
            "doubleSided" : true,
            "name" : "Cheese",
            "normalTexture" : {
                "index" : 0
            },
            "occlusionTexture" : {
                "index" : 1
            },
            "pbrMetallicRoughness" : {
                "baseColorTexture" : {
                    "index" : 2
                },
                "metallicRoughnessTexture" : {
                    "index" : 1
                }
            }
        }
    ],
    "meshes" : [
        {
            "name" : "defaultMaterial",
            "primitives" : [
                {
                    "attributes" : {
                        "POSITION" : 0,
                        "NORMAL" : 1,
                        "TEXCOORD_0" : 2
                    },
                    "indices" : 3,
                    "material" : 0
                }
            ]
        }
    ],
    "textures" : [
        {
            "sampler" : 0,
            "source" : 0
        },
        {
            "sampler" : 0,
            "source" : 1
        },
        {
            "sampler" : 0,
            "source" : 2
        }
    ],
    "images" : [
        {
            "mimeType" : "image/png",
            "name" : "Cheese_normal",
            "uri" : "Cheese_normal.png"
        },
        {
            "mimeType" : "image/png",
            "name" : "Cheese_metallicRoughness",
            "uri" : "Cheese_metallicRoughness.png"
        },
        {
            "mimeType" : "image/jpeg",
            "name" : "Cheese_baseColor",
            "uri" : "Cheese_baseColor.jpg"
        }
    ],
    "accessors" : [
        {
            "bufferView" : 0,
            "componentType" : 5126,
            "count" : 14967,
            "max" : [
                3.518059015274048,
                1.7124383449554443,
                3.948690414428711
            ],
            "min" : [
                -2.3278050422668457,
                -1.760610818862915,
                -3.9318339824676514
            ],
            "type" : "VEC3"
        },
        {
            "bufferView" : 1,
            "componentType" : 5126,
            "count" : 14967,
            "type" : "VEC3"
        },
        {
            "bufferView" : 2,
            "componentType" : 5126,
            "count" : 14967,
            "type" : "VEC2"
        },
        {
            "bufferView" : 3,
            "componentType" : 5123,
            "count" : 67914,
            "type" : "SCALAR"
        }
    ],
    "bufferViews" : [
        {
            "buffer" : 0,
            "byteLength" : 179604,
            "byteOffset" : 0,
            "target" : 34962
        },
        {
            "buffer" : 0,
            "byteLength" : 179604,
            "byteOffset" : 179604,
            "target" : 34962
        },
        {
            "buffer" : 0,
            "byteLength" : 119736,
            "byteOffset" : 359208,
            "target" : 34962
        },
        {
            "buffer" : 0,
            "byteLength" : 135828,
            "byteOffset" : 478944,
            "target" : 34963
        }
    ],
    "samplers" : [
        {
            "magFilter" : 9729,
            "minFilter" : 9987
        }
    ],
    "buffers" : [
        {
            "byteLength" : 614772,
            "uri" : "scene2.bin"
        }
    ]
}
