<?xml version="1.0" encoding="UTF-8" standalone="no"?><!DOCTYPE svg PUBLIC "-//W3C//DTD SVG 1.1//EN" "http://www.w3.org/Graphics/SVG/1.1/DTD/svg11.dtd"><svg width="100%" height="100%" viewBox="0 0 200 200" version="1.1" xmlns="http://www.w3.org/2000/svg" xmlns:xlink="http://www.w3.org/1999/xlink" xml:space="preserve" xmlns:serif="http://www.serif.com/" style="fill-rule:evenodd;clip-rule:evenodd;stroke-linejoin:round;stroke-miterlimit:2;"><path d="M91.458,167.5l-11.041,-10.208c-17.223,-15.973 -32.153,-31.216 -44.792,-45.73c-12.639,-14.513 -18.958,-29.687 -18.958,-45.52c0,-12.5 4.201,-22.952 12.604,-31.355c8.403,-8.402 18.785,-12.604 31.146,-12.604c7.083,0 14.097,1.702 21.041,5.105c6.945,3.402 13.125,8.993 18.542,16.77c6.111,-7.777 12.431,-13.368 18.958,-16.77c6.528,-3.403 13.403,-5.105 20.625,-5.105c12.361,0 22.743,4.202 31.146,12.605c8.403,8.402 12.604,18.854 12.604,31.354c-0,15.833 -6.319,31.007 -18.958,45.521c-12.639,14.513 -27.569,29.756 -44.792,45.729l-11.041,10.208c-2.361,2.222 -5.209,3.333 -8.542,3.333c-3.333,0 -6.181,-1.111 -8.542,-3.333Z" style="fill:#fff;fill-rule:nonzero;"/></svg>